<?xml version="1.0" encoding="UTF-8"?>
<svg version="1.1" xmlns="http://www.w3.org/2000/svg" width="501" height="498">
<path d="M0 0 C0.99 0 1.98 0 3 0 C3.39155273 1.10734497 3.39155273 1.10734497 3.79101562 2.23706055 C10.31807911 20.68127526 10.31807911 20.68127526 17.1875 39 C20.06961228 46.46931845 22.79994249 53.97744815 25.39135742 61.55273438 C28.0985412 69.42880015 31.05640438 77.21000594 34 85 C34.10139564 78.37985308 34.17146336 71.75990628 34.21972656 65.13916016 C34.23984556 62.88680539 34.26714408 60.63450287 34.30175781 58.38232422 C34.35026209 55.14537669 34.37296605 51.90911953 34.390625 48.671875 C34.41127014 47.66445251 34.43191528 46.65703003 34.45318604 45.61907959 C34.60939929 40.14466193 34.60939929 40.14466193 31.97558594 35.58300781 C31.32364258 35.06061523 30.67169922 34.53822266 30 34 C30 32.68 30 31.36 30 30 C35.90410675 29.92518191 41.80793032 29.87108544 47.71240234 29.83520508 C49.71603205 29.82022858 51.71962961 29.79984019 53.72314453 29.77368164 C70.71790087 29.55753885 85.23304346 29.92068102 98.32421875 42.17578125 C102.59094239 46.74220082 105.50520047 51.28275107 108 57 C108.33 52.05 108.66 47.1 109 42 C108.34 42 107.68 42 107 42 C107 41.34 107 40.68 107 40 C106.34 40 105.68 40 105 40 C105 39.34 105 38.68 105 38 C104.34 38 103.68 38 103 38 C103 37.34 103 36.68 103 36 C102.360625 35.7525 101.72125 35.505 101.0625 35.25 C99 34 99 34 98 30 C122.75 30 147.5 30 173 30 C172.15380345 35.92337582 170.94935686 40.79135165 169.0625 46.375 C168.79759766 47.19355469 168.53269531 48.01210938 168.25976562 48.85546875 C168.00001953 49.63277344 167.74027344 50.41007812 167.47265625 51.2109375 C167.23812744 51.91524902 167.00359863 52.61956055 166.76196289 53.34521484 C166 55 166 55 164 56 C161.89471067 56.08543895 159.78668843 56.10714725 157.6796875 56.09765625 C156.42285156 56.09443359 155.16601562 56.09121094 153.87109375 56.08789062 C152.55238281 56.07951172 151.23367188 56.07113281 149.875 56.0625 C148.53515789 56.05748489 147.195314 56.05292201 145.85546875 56.04882812 C142.57026794 56.03701086 139.28515603 56.02053617 136 56 C136 57.98 136 59.96 136 62 C136.66 61.67 137.32 61.34 138 61 C139.71662123 60.90370351 141.43693118 60.86924974 143.15625 60.8671875 C144.68958984 60.86525391 144.68958984 60.86525391 146.25390625 60.86328125 C147.32511719 60.86714844 148.39632813 60.87101562 149.5 60.875 C151.10681641 60.86919922 151.10681641 60.86919922 152.74609375 60.86328125 C153.76832031 60.86457031 154.79054688 60.86585938 155.84375 60.8671875 C156.78412109 60.86831543 157.72449219 60.86944336 158.69335938 60.87060547 C161 61 161 61 163 62 C162.42378217 67.88847263 160.74351432 72.89359129 158.5625 78.375 C158.24990234 79.19355469 157.93730469 80.01210938 157.61523438 80.85546875 C155.25539905 86.87230048 155.25539905 86.87230048 153 88 C150.11629667 88.07194869 147.25760336 88.09291708 144.375 88.0625 C143.57320313 88.05798828 142.77140625 88.05347656 141.9453125 88.04882812 C139.96350994 88.03703168 137.98174567 88.01909605 136 88 C136 89.32 136 90.64 136 92 C137.22976563 91.94199219 138.45953125 91.88398438 139.7265625 91.82421875 C141.35933688 91.77729995 142.99215252 91.73180206 144.625 91.6875 C145.43324219 91.64560547 146.24148438 91.60371094 147.07421875 91.56054688 C151.42308716 91.47215524 153.52211742 91.69841811 157.29296875 94.078125 C160.21571801 97.23283849 162.47968623 100.39059808 164.6875 104.0625 C167.53373304 108.75696833 167.53373304 108.75696833 170.76953125 113.18359375 C172 115 172 115 172 119 C163.93347826 119.02312737 155.86697028 119.04091709 147.80042362 119.05181217 C144.05516963 119.05704014 140.30993824 119.06413622 136.56469727 119.07543945 C132.95318313 119.08627141 129.34169079 119.09227749 125.73016167 119.09487724 C124.34939671 119.09673094 122.968633 119.10035049 121.58787727 119.10573006 C119.66024048 119.11294447 117.73258193 119.11340809 115.80493164 119.11352539 C114.70572891 119.115746 113.60652618 119.11796661 112.47401428 119.12025452 C110 119 110 119 109 118 C108.84213692 116.14825294 108.74892644 114.2909089 108.68359375 112.43359375 C108.64169922 111.30888672 108.59980469 110.18417969 108.55664062 109.02539062 C108.51732422 107.84138672 108.47800781 106.65738281 108.4375 105.4375 C108.39431641 104.24962891 108.35113281 103.06175781 108.30664062 101.83789062 C108.20016454 98.89205216 108.09815159 95.9461257 108 93 C107.56550537 93.75216797 107.13101074 94.50433594 106.68334961 95.27929688 C99.89349953 106.861294 90.99808091 114.90913687 78.01460075 118.56599045 C74.48747586 119.32584616 70.99680267 119.26063037 67.40258789 119.22705078 C66.57251221 119.22734283 65.74243652 119.22763489 64.88720703 119.22793579 C62.16558076 119.22655144 59.44423422 119.21103267 56.72265625 119.1953125 C54.82694142 119.19157919 52.93122466 119.18873372 51.0355072 119.18673706 C46.06247568 119.17912568 41.08956224 119.15949872 36.11657715 119.1373291 C31.03541664 119.1168168 25.95423692 119.10772385 20.87304688 119.09765625 C10.9153129 119.07625039 0.95766629 119.04214471 -9 119 C-7.94625344 110.18165992 -7.94625344 110.18165992 -6.66015625 106.7890625 C-6.40169922 106.10199219 -6.14324219 105.41492188 -5.87695312 104.70703125 C-5.60818359 104.01996094 -5.33941406 103.33289063 -5.0625 102.625 C-4.66514648 101.55958984 -4.66514648 101.55958984 -4.25976562 100.47265625 C-2.27083333 95.27083333 -2.27083333 95.27083333 0 93 C2.3828125 92.5859375 2.3828125 92.5859375 5.125 92.375 C6.49011719 92.26285156 6.49011719 92.26285156 7.8828125 92.1484375 C8.58148438 92.09945312 9.28015625 92.05046875 10 92 C8.24594255 85.9392324 6.35287469 79.92839151 4.375 73.9375 C4.15690674 73.27032959 3.93881348 72.60315918 3.71411133 71.91577148 C2.81568932 68.70227989 2.81568932 68.70227989 1 66 C-2.57298991 74.44620987 -6.05167709 82.89742636 -9.0625 91.5625 C-9.42396118 92.60096069 -9.42396118 92.60096069 -9.79272461 93.66040039 C-10.27959543 95.06049966 -10.76633061 96.46064611 -11.25292969 97.86083984 C-12.53848804 101.54190596 -13.85049083 105.21232164 -15.1875 108.875 C-15.5443689 109.88348999 -15.5443689 109.88348999 -15.90844727 110.91235352 C-17.14742138 114.2760272 -18.15375507 116.77887043 -21 119 C-23.10900879 119.38768005 -23.10900879 119.38768005 -25.57226562 119.40405273 C-26.49753052 119.41673691 -27.42279541 119.42942108 -28.37609863 119.44248962 C-29.37604858 119.43955399 -30.37599854 119.43661835 -31.40625 119.43359375 C-32.95886536 119.44145653 -32.95886536 119.44145653 -34.54284668 119.44947815 C-36.73851627 119.45590795 -38.93422027 119.45454902 -41.12988281 119.44604492 C-44.45962678 119.43760237 -47.78761608 119.46617431 -51.1171875 119.49804688 C-53.25520782 119.49966088 -55.39323115 119.49907756 -57.53125 119.49609375 C-58.5150061 119.50732773 -59.49876221 119.51856171 -60.5123291 119.53013611 C-72.00887133 119.41666896 -83.91797591 115.03842535 -92.1796875 106.8359375 C-93.85367467 104.93337377 -95.45867451 103.01086835 -97 101 C-98.26660973 102.8999146 -99.48265955 104.83537229 -100.625 106.8125 C-105.35801428 113.16470337 -111.38319146 116.844405 -119 119 C-122.09673397 119.3849293 -125.1443989 119.3814722 -128.26171875 119.34057617 C-129.15046188 119.34101425 -130.03920502 119.34145233 -130.95487976 119.34190369 C-133.86598376 119.33982878 -136.77649773 119.31655945 -139.6875 119.29296875 C-141.71630539 119.28736817 -143.74511487 119.28310026 -145.77392578 119.28010559 C-151.09388582 119.2686932 -156.41359717 119.23925715 -161.73345947 119.20599365 C-167.16992835 119.17521486 -172.60643771 119.1615836 -178.04296875 119.14648438 C-188.69542131 119.11438392 -199.34768991 119.06323136 -210 119 C-211.44511216 114.50726278 -209.93696377 111.34240943 -208.25 107.125 C-207.85167969 106.08279297 -207.85167969 106.08279297 -207.4453125 105.01953125 C-206.6613619 102.99876538 -205.83617403 100.9996237 -205 99 C-204.54496094 97.86046875 -204.08992188 96.7209375 -203.62109375 95.546875 C-202 93 -202 93 -199.51953125 92.1953125 C-198.62621094 92.17210937 -197.73289062 92.14890625 -196.8125 92.125 C-195.91144531 92.08632813 -195.01039063 92.04765625 -194.08203125 92.0078125 C-193.39496094 92.00523437 -192.70789063 92.00265625 -192 92 C-194.25396835 83.185701 -197.0624369 74.60369272 -200 66 C-201.84023421 68.76035131 -202.85604048 71.03175233 -203.98828125 74.12109375 C-204.36243164 75.13324951 -204.73658203 76.14540527 -205.12207031 77.18823242 C-205.51491211 78.26049072 -205.90775391 79.33274902 -206.3125 80.4375 C-209.03599325 87.79255936 -211.78528179 95.10315751 -214.875 102.3125 C-216.69370901 106.65719374 -218.33132041 111.07057944 -219.984375 115.48046875 C-221 118 -221 118 -222 119 C-223.47048882 119.11391768 -224.94635102 119.1595536 -226.42114258 119.17700195 C-227.36335159 119.18983719 -228.30556061 119.20267242 -229.27632141 119.21589661 C-230.81983528 119.22697701 -230.81983528 119.22697701 -232.39453125 119.23828125 C-233.98112801 119.25038887 -233.98112801 119.25038887 -235.59977722 119.26274109 C-237.85027415 119.27661089 -240.10079237 119.28732 -242.35131836 119.29516602 C-245.76002534 119.3122372 -249.16772636 119.35608009 -252.57617188 119.40039062 C-266.47017689 119.50215851 -278.24604209 119.49158016 -289.5625 110.5 C-290.53316406 109.7471875 -291.50382812 108.994375 -292.50390625 108.21875 C-294.71641562 106.252075 -296.42805875 104.49816926 -298 102 C-298 101.34 -298 100.68 -298 100 C-298.66 100 -299.32 100 -300 100 C-300.99088927 97.98488879 -301.96718737 95.96259953 -302.9375 93.9375 C-303.48277344 92.81214844 -304.02804687 91.68679688 -304.58984375 90.52734375 C-308.90724055 79.72787198 -307.94349008 66.81127577 -303.5 56.1875 C-302.36399827 53.77349633 -301.23080295 51.36692874 -300 49 C-299.34 49 -298.68 49 -298 49 C-297.75507813 48.25878906 -297.51015625 47.51757812 -297.2578125 46.75390625 C-294.30053786 40.27912792 -287.48213944 35.83033524 -281.21484375 32.7890625 C-274.28259311 30.3193718 -268.11236938 29.72089465 -260.8125 29.8046875 C-259.39783447 29.80893234 -259.39783447 29.80893234 -257.95458984 29.81326294 C-254.96959244 29.82437558 -251.98490531 29.84946328 -249 29.875 C-246.96484811 29.88504134 -244.92969148 29.89416516 -242.89453125 29.90234375 C-237.92956963 29.92428565 -232.96483725 29.95875327 -228 30 C-227.87864371 34.15064341 -228.35829627 36.17120319 -230.625 39.6875 C-231.16769531 40.54601562 -231.71039063 41.40453125 -232.26953125 42.2890625 C-232.84058594 43.18367188 -233.41164063 44.07828125 -234 45 C-235.10917508 46.85117495 -236.21356842 48.7052258 -237.3125 50.5625 C-239.87692308 54.87692308 -239.87692308 54.87692308 -241 56 C-242.6242026 56.13338046 -244.2537009 56.20343407 -245.8828125 56.24609375 C-246.88570312 56.27896484 -247.88859375 56.31183594 -248.921875 56.34570312 C-251.03376402 56.40622677 -253.14574627 56.46359139 -255.2578125 56.51757812 C-262.78215154 56.77190846 -268.96947349 57.08623765 -275 62 C-275.66 62 -276.32 62 -277 62 C-277.309375 62.969375 -277.61875 63.93875 -277.9375 64.9375 C-279 68 -279 68 -280 69 C-280.58171402 74.94019511 -280.5293045 79.99066459 -277 85 C-272.03881567 90.32450339 -268.28628223 91.84138777 -260.93212891 92.11352539 C-259.34537354 92.10567017 -259.34537354 92.10567017 -257.7265625 92.09765625 C-256.57285156 92.09443359 -255.41914063 92.09121094 -254.23046875 92.08789062 C-252.44576172 92.07532227 -252.44576172 92.07532227 -250.625 92.0625 C-249.41199219 92.05798828 -248.19898438 92.05347656 -246.94921875 92.04882812 C-243.96609493 92.03708354 -240.98307321 92.0206584 -238 92 C-237.74387939 91.35933594 -237.48775879 90.71867187 -237.22387695 90.05859375 C-235.66615439 86.16301736 -234.10763674 82.26779328 -232.54296875 78.375 C-228.01375917 67.09765971 -223.50905346 55.80502322 -219.29296875 44.40625 C-219.02226562 43.675271 -218.7515625 42.94429199 -218.47265625 42.19116211 C-217.96244712 40.8079179 -217.45573592 39.42337666 -216.953125 38.03735352 C-215.8585682 35.06558542 -214.76888695 32.65333043 -213 30 C-209.06215355 29.30596415 -205.05430119 29.49076506 -201.0625 29.5 C-199.95197266 29.47164063 -198.84144531 29.44328125 -197.69726562 29.4140625 C-196.63314453 29.41148437 -195.56902344 29.40890625 -194.47265625 29.40625 C-193.00711304 29.39561523 -193.00711304 29.39561523 -191.51196289 29.38476562 C-189 30 -189 30 -187.26318359 32.27539062 C-186.20089236 34.56668753 -185.18594202 36.81760512 -184.31640625 39.1875 C-184.03071777 39.962146 -183.7450293 40.73679199 -183.45068359 41.53491211 C-183.15758301 42.34839111 -182.86448242 43.16187012 -182.5625 44 C-182.25393066 44.84506104 -181.94536133 45.69012207 -181.62744141 46.56079102 C-179.90811118 51.31766493 -178.31534449 56.08736039 -176.875 60.9375 C-175.02024384 67.1805303 -172.55864103 73.00903563 -170 79 C-167.525 85.435 -167.525 85.435 -165 92 C-151.47 92 -137.94 92 -124 92 C-124.33 91.01 -124.66 90.02 -125 89 C-125.79583496 88.96036133 -126.59166992 88.92072266 -127.41162109 88.87988281 C-131.06726017 88.68767637 -134.72087377 88.46902855 -138.375 88.25 C-139.62667969 88.188125 -140.87835938 88.12625 -142.16796875 88.0625 C-150.9229486 87.51244891 -158.6742088 86.49880171 -165.65625 80.8515625 C-166.2646875 80.11679687 -166.873125 79.38203125 -167.5 78.625 C-168.1290625 77.89539063 -168.758125 77.16578125 -169.40625 76.4140625 C-173.32985732 70.47095142 -173.39377495 64.52384086 -173.4375 57.625 C-173.47037109 56.7175 -173.50324219 55.81 -173.53710938 54.875 C-173.5966252 47.3651855 -171.41977151 42.84038805 -166.47753906 37.2902832 C-158.8728199 29.96990471 -149.13455297 29.55772227 -139.0859375 29.70703125 C-137.44245834 29.71339851 -137.44245834 29.71339851 -135.76577759 29.71989441 C-132.30192401 29.736548 -128.83867464 29.77417542 -125.375 29.8125 C-123.01172721 29.82756404 -120.64844521 29.84124942 -118.28515625 29.85351562 C-112.52323496 29.88640772 -106.76166067 29.9364724 -101 30 C-100 33 -100 33 -100.84863281 35.23657227 C-101.29561523 36.08791748 -101.74259766 36.9392627 -102.203125 37.81640625 C-102.68910156 38.74517578 -103.17507812 39.67394531 -103.67578125 40.63085938 C-104.19527344 41.59830078 -104.71476563 42.56574219 -105.25 43.5625 C-105.75402344 44.53380859 -106.25804687 45.50511719 -106.77734375 46.50585938 C-110.60701698 53.73801132 -110.60701698 53.73801132 -114 56 C-116.95507812 56.30297852 -116.95507812 56.30297852 -120.53125 56.37890625 C-121.81644531 56.41306641 -123.10164062 56.44722656 -124.42578125 56.48242188 C-125.78384146 56.50975329 -127.14191481 56.53643901 -128.5 56.5625 C-131.15645763 56.62044181 -133.81250585 56.68596821 -136.46875 56.75390625 C-137.64888672 56.77783447 -138.82902344 56.8017627 -140.04492188 56.82641602 C-143.05809505 56.87489114 -143.05809505 56.87489114 -146 58 C-146 58.66 -146 59.32 -146 60 C-142.92530372 60.88931598 -140.12527005 61.14708443 -136.9296875 61.2109375 C-135.46015625 61.25347656 -135.46015625 61.25347656 -133.9609375 61.296875 C-131.92725318 61.34836068 -129.8933765 61.39280146 -127.859375 61.4296875 C-119.60580838 61.68828489 -112.34893848 63.14697599 -105 67 C-104.814375 65.7625 -104.62875 64.525 -104.4375 63.25 C-101.95416941 52.22262289 -94.71753245 42.39978733 -85.328125 36.25 C-76.61113892 31.24134502 -68.95079883 29.68798559 -59.03125 29.8046875 C-57.64987854 29.80893234 -57.64987854 29.80893234 -56.24060059 29.81326294 C-53.32692948 29.82437225 -50.41357669 29.84945922 -47.5 29.875 C-45.5130253 29.88504177 -43.52604574 29.89416552 -41.5390625 29.90234375 C-36.69258748 29.92428121 -31.84634753 29.95874639 -27 30 C-26.67 30.66 -26.34 31.32 -26 32 C-26.86450195 34.21484375 -26.86450195 34.21484375 -28.23828125 36.9375 C-28.72876953 37.91460937 -29.21925781 38.89171875 -29.72460938 39.8984375 C-30.24861328 40.92195313 -30.77261719 41.94546875 -31.3125 43 C-32.08110352 44.53527344 -32.08110352 44.53527344 -32.86523438 46.1015625 C-36.71935497 53.71935497 -36.71935497 53.71935497 -39 56 C-41.27148438 56.25537109 -41.27148438 56.25537109 -44.09375 56.2734375 C-45.125 56.2940625 -46.15625 56.3146875 -47.21875 56.3359375 C-49.37492427 56.36160624 -51.53119885 56.3800549 -53.6875 56.390625 C-60.75465434 56.54806161 -66.76454679 57.50022333 -73 61 C-76.84480624 65.12613353 -78.11149374 69.41517718 -78 75 C-77.36732957 79.62687895 -76.38677518 83.94599215 -74 88 C-71.76740335 89.22772827 -71.76740335 89.22772827 -69 90 C-68.07445312 90.34546875 -67.14890625 90.6909375 -66.1953125 91.046875 C-60.31664877 92.72032381 -54.11492291 92.20751861 -48.0625 92.125 C-46.80630859 92.11597656 -45.55011719 92.10695313 -44.25585938 92.09765625 C-41.17037478 92.07419249 -38.08528795 92.04136201 -35 92 C-34.86247314 91.40533936 -34.72494629 90.81067871 -34.58325195 90.19799805 C-32.29322272 81.0591402 -28.74719593 72.51036168 -25.1875 63.8125 C-23.96966925 60.82021764 -22.75541386 57.82649955 -21.54296875 54.83203125 C-21.24412277 54.09489395 -20.94527679 53.35775665 -20.63737488 52.59828186 C-18.1100037 46.33606123 -15.72865303 40.02470312 -13.37768555 33.69458008 C-11.41099424 28.42044582 -9.36853811 23.17731493 -7.3125 17.9375 C-6.93544922 16.97134766 -6.55839844 16.00519531 -6.16992188 15.00976562 C-4.19520916 9.96787259 -2.16786376 4.96199927 0 0 Z M61 56 C60.9753499 61.10863896 60.95716393 66.21724359 60.94506836 71.32592773 C60.94002796 73.06519168 60.9331957 74.80445136 60.92456055 76.54370117 C60.91248208 79.03825937 60.90676892 81.53276173 60.90234375 84.02734375 C60.89718246 84.80963852 60.89202118 85.59193329 60.88670349 86.39793396 C60.88650774 88.26567114 60.93800306 90.13329204 61 92 C62.05629202 93.28673333 62.05629202 93.28673333 64.4765625 93.0546875 C71.29729795 92.66541476 76.1362727 92.02062172 81 87 C84.45396504 82.85524195 85.01752201 78.26536337 85 73 C84.40886256 68.84041097 83.35571971 65.53357957 81 62 C80.34 62 79.68 62 79 62 C79 61.34 79 60.68 79 60 C72.65868097 56.60813168 68.13846653 55.95825458 61 56 Z " fill="#050303" transform="translate(313,310)"/>
<path d="M0 0 C2.25 0 2.25 0 5 1 C6.90625 4.36328125 6.90625 4.36328125 7.8828125 6.56103516 C9.11335584 9.24747047 10.53416492 11.74564198 12.03125 14.29296875 C12.8668042 15.71657715 12.8668042 15.71657715 13.71923828 17.16894531 C14.30688965 18.16506836 14.89454102 19.16119141 15.5 20.1875 C20.09382532 28.01295132 24.64659138 35.8579427 29.125 43.75 C33.60269208 51.63196482 38.22599969 59.41625111 42.91577148 67.17358398 C45.91631356 72.1502507 48.78120596 77.16999468 51.51171875 82.30078125 C53.417324 85.75687896 55.45498039 89.12506716 57.5 92.5 C60.65372838 97.70596834 63.66167209 102.95891895 66.5390625 108.32421875 C68.70258558 112.28682119 71.00798921 116.16358166 73.296875 120.0546875 C74.83765701 122.71925088 76.30430359 125.40808778 77.75 128.125 C80.92451654 134.01197406 84.42883106 139.68642406 87.95410156 145.36767578 C90.68075113 149.77624789 93.26944204 154.2338629 95.76538086 158.77685547 C97.77338512 162.3926132 99.88875063 165.94386435 102 169.5 C104.96636329 174.49646817 107.86480074 179.52022761 110.67382812 184.60693359 C113.73508733 190.13095103 116.8650327 195.61678166 119.97705078 201.11230469 C122.53071298 205.62418209 125.08200394 210.13693941 127.6015625 214.66796875 C131.3414652 221.38804522 135.19674391 227.97616304 139.38671875 234.4296875 C141.57607904 237.91782084 143.51297895 241.51889119 145.44140625 245.15625 C147.72607812 249.32477411 150.25206282 253.34458425 152.77734375 257.37109375 C154 260 154 260 153 264 C53.34 264 -46.32 264 -149 264 C-150 260 -150 260 -148.2265625 256.41796875 C-147.3718103 255.00024046 -146.50372146 253.59049801 -145.625 252.1875 C-144.94195801 251.06287354 -144.94195801 251.06287354 -144.24511719 249.91552734 C-143.30100056 248.36260925 -142.35172149 246.81281869 -141.39746094 245.26611328 C-139.32242997 241.90125698 -137.28518926 238.51405165 -135.25 235.125 C-134.87568848 234.50383301 -134.50137695 233.88266602 -134.11572266 233.24267578 C-131.48498266 228.86044444 -128.99817587 224.41899743 -126.578125 219.91796875 C-121.24467064 210.05635884 -115.64461532 200.34901348 -109.93798828 190.69970703 C-104.52220364 181.5257776 -99.27025214 172.25800946 -94 163 C-85.61080729 148.26309114 -77.17542846 133.56058683 -68.40869141 119.04418945 C-64.97469072 113.35630927 -61.65372505 107.63080399 -58.5078125 101.77734375 C-49.68714246 85.52994375 -40.13483462 69.64944721 -30.8125 53.6875 C-25.82779378 45.15109016 -20.88373729 36.59452457 -16 28 C-14.66723283 25.66634048 -13.33395845 23.33297802 -12 21 C-11.3503125 19.86304687 -10.700625 18.72609375 -10.03125 17.5546875 C-6.6875 11.703125 -3.34375 5.8515625 0 0 Z M3 38 C2.69932617 38.5261792 2.39865234 39.0523584 2.08886719 39.59448242 C1.66250977 40.34060791 1.23615234 41.0867334 0.796875 41.85546875 C0.31710205 42.69513184 -0.1626709 43.53479492 -0.65698242 44.39990234 C-1.73245636 46.28185811 -2.80814515 48.16369111 -3.8840332 50.04541016 C-6.64507811 54.87513521 -9.40311483 59.70650654 -12.15234375 64.54296875 C-17.0087109 73.07847247 -21.90882676 81.57519757 -26.99560547 89.97558594 C-29.52567582 94.1681421 -31.89726801 98.42200565 -34.21484375 102.734375 C-40.5894516 114.39558323 -47.23922729 125.89932707 -54.27734375 137.171875 C-56.44510324 140.73073638 -58.40590771 144.38134247 -60.37109375 148.0546875 C-62.32716382 151.5915624 -64.40509828 155.04414828 -66.5 158.5 C-69.6274305 163.66433284 -72.61592777 168.87315438 -75.4765625 174.19140625 C-79.62088596 181.83183847 -83.90638335 189.38562302 -88.625 196.6875 C-91.4394298 201.04573667 -93.96333767 205.49560993 -96.4140625 210.06640625 C-101.37394402 219.24096541 -106.66918227 228.22335621 -112.1184082 237.11425781 C-113.70774719 239.72882839 -115.0284817 242.08544511 -116 245 C-38.12 245 39.76 245 120 245 C118.48545243 241.21363107 117.06623424 238.27487684 114.953125 234.8671875 C114.355 233.89523437 113.756875 232.92328125 113.140625 231.921875 C112.51671875 230.91640625 111.8928125 229.9109375 111.25 228.875 C107.13896812 222.23812227 103.15224357 215.59949536 99.54589844 208.67236328 C99.03575195 207.7904834 98.52560547 206.90860352 98 206 C97.7342772 205.41778592 97.4685544 204.83557184 97.1947794 204.23571491 C95.99677554 202.03786578 94.93269654 200.6074781 93 199 C88.84538078 197.95767025 84.76164325 198.1157419 80.4987793 198.20532227 C79.23008499 198.20430008 77.96139069 198.20327789 76.6542511 198.20222473 C73.18288587 198.20021899 69.71321923 198.2413233 66.2422483 198.29024243 C62.61217383 198.33405023 58.98205888 198.33811727 55.35176086 198.34642029 C48.48085476 198.36816332 41.6107298 198.42558641 34.74016744 198.49586672 C26.91685265 198.57415291 19.09350022 198.61260719 11.26989114 198.64773476 C-4.82052961 198.72087131 -20.91016507 198.84396726 -37 199 C-36.43006757 195.30668569 -35.95867643 192.38830107 -33.99609375 189.1875 C-33.5897168 188.51259521 -33.18333984 187.83769043 -32.76464844 187.14233398 C-32.10770996 186.08187866 -32.10770996 186.08187866 -31.4375 185 C-30.51355569 183.47051529 -29.59038717 181.94056169 -28.66796875 180.41015625 C-28.21083496 179.65750488 -27.75370117 178.90485352 -27.28271484 178.12939453 C-25.55443051 175.26032411 -23.8989925 172.35274704 -22.25 169.4375 C-17.38989602 160.89519911 -12.42243509 152.41566099 -7.46484375 143.9296875 C-6.90007324 142.96256836 -6.33530273 141.99544922 -5.75341797 140.99902344 C-4.53049468 138.90735124 -3.30538871 136.8169543 -2.07861328 134.72753906 C-1.45583496 133.6650293 -0.83305664 132.60251953 -0.19140625 131.5078125 C0.37247803 130.54762207 0.9363623 129.58743164 1.51733398 128.59814453 C2.75631928 126.42701304 3.9123258 124.24965124 5 122 C5.99 122 6.98 122 8 122 C8.53367187 123.17433594 9.06734375 124.34867187 9.6171875 125.55859375 C10.36933285 127.18510808 11.12196428 128.8113977 11.875 130.4375 C12.22046875 131.20126953 12.5659375 131.96503906 12.921875 132.75195312 C13.71756164 134.45993564 14.55617881 136.14825435 15.42529297 137.82006836 C16.67618105 140.34608655 17.69528539 142.79435 18.70361328 145.41625977 C20.75587455 150.23195386 22.84230414 154.67283661 27 158 C34.64297144 160.74543454 43.17964475 159.59372329 51.125 159.0625 C53.3434605 158.97713722 55.56223615 158.89958586 57.78125 158.83007812 C63.19442303 158.64356742 68.59574253 158.3600565 74 158 C72.82793907 154.94005789 71.58199687 152.09576719 69.8984375 149.28515625 C69.4950415 148.60662598 69.09164551 147.9280957 68.67602539 147.22900391 C68.24668701 146.51405762 67.81734863 145.79911133 67.375 145.0625 C66.46413903 143.53036666 65.55399143 141.997809 64.64453125 140.46484375 C64.19416504 139.70671387 63.74379883 138.94858398 63.27978516 138.16748047 C61.51002974 135.17017247 59.78371311 132.15048639 58.0625 129.125 C54.52553693 122.90873425 50.9447592 116.71881361 47.35449219 110.53320312 C44.33049863 105.31655444 41.3365124 100.08368187 38.35693359 94.84155273 C33.94089295 87.0740402 29.44366709 79.39408998 24.71484375 71.8125 C23.12326596 69.20216741 21.63597293 66.56677972 20.1875 63.875 C17.29429767 58.50419346 14.32485524 53.1796961 11.3125 47.875 C10.83643311 47.02019043 10.36036621 46.16538086 9.86987305 45.28466797 C9.41394775 44.48689941 8.95802246 43.68913086 8.48828125 42.8671875 C8.08134033 42.14644043 7.67439941 41.42569336 7.25512695 40.68310547 C6.01690142 38.68815374 6.01690142 38.68815374 3 38 Z " fill="#0B0707" transform="translate(244,43)"/>
<path d="M0 0 C5.90410675 -0.07481809 11.80793032 -0.12891456 17.71240234 -0.16479492 C19.71603205 -0.17977142 21.71962961 -0.20015981 23.72314453 -0.22631836 C45.07806848 -0.49791465 45.07806848 -0.49791465 55 3 C55 3.33 55 3.66 55 4 C48.25 4.125 48.25 4.125 46 3 C44.64247704 2.88295036 43.27974112 2.82322811 41.91748047 2.79467773 C41.07675995 2.77473251 40.23603943 2.75478729 39.36984253 2.73423767 C38.00727829 2.70916893 38.00727829 2.70916893 36.6171875 2.68359375 C35.68778351 2.66281265 34.75837952 2.64203156 33.80081177 2.62062073 C30.8256179 2.55512354 27.85033423 2.49623948 24.875 2.4375 C22.86066772 2.39431494 20.84634459 2.35070066 18.83203125 2.30664062 C13.88811337 2.19944197 8.94410497 2.09817499 4 2 C4.65645508 2.91531494 5.31291016 3.83062988 5.98925781 4.77368164 C8.88973017 9.88260993 8.40190976 14.89951035 8.171875 20.62109375 C8.14401917 21.72099136 8.11616333 22.82088898 8.08746338 23.95411682 C7.99447681 27.44945211 7.87266141 30.94309278 7.75 34.4375 C7.68168621 36.81439907 7.61525908 39.19135316 7.55078125 41.56835938 C7.38903329 47.37972135 7.2036408 53.18996326 7 59 C5.02 59.495 5.02 59.495 3 60 C-1.31960155 53.86895264 -1.75690081 48.40237027 -2 41 C-0.06061181 43.90908228 0.96774957 46.40862379 2.125 49.6875 C2.47820312 50.68136719 2.83140625 51.67523438 3.1953125 52.69921875 C3.46085937 53.45847656 3.72640625 54.21773438 4 55 C4.10139564 48.37985308 4.17146336 41.75990628 4.21972656 35.13916016 C4.23984556 32.88680539 4.26714408 30.63450287 4.30175781 28.38232422 C4.35026209 25.14537669 4.37296605 21.90911953 4.390625 18.671875 C4.41127014 17.66445251 4.43191528 16.65703003 4.45318604 15.61907959 C4.60939929 10.14466193 4.60939929 10.14466193 1.97558594 5.58300781 C1.32364258 5.06061523 0.67169922 4.53822266 0 4 C0 2.68 0 1.36 0 0 Z " fill="#44292B" transform="translate(343,340)"/>
<path d="M0 0 C0.33 0 0.66 0 1 0 C1 1.98 1 3.96 1 6 C1.66 5.67 2.32 5.34 3 5 C4.71662123 4.90370351 6.43693118 4.86924974 8.15625 4.8671875 C9.68958984 4.86525391 9.68958984 4.86525391 11.25390625 4.86328125 C12.32511719 4.86714844 13.39632813 4.87101562 14.5 4.875 C16.10681641 4.86919922 16.10681641 4.86919922 17.74609375 4.86328125 C19.27943359 4.86521484 19.27943359 4.86521484 20.84375 4.8671875 C21.78412109 4.86831543 22.72449219 4.86944336 23.69335938 4.87060547 C26 5 26 5 28 6 C27.42378217 11.88847263 25.74351432 16.89359129 23.5625 22.375 C23.24990234 23.19355469 22.93730469 24.01210938 22.61523438 24.85546875 C20.25539905 30.87230048 20.25539905 30.87230048 18 32 C15.11629667 32.07194869 12.25760336 32.09291708 9.375 32.0625 C8.17230469 32.05573242 8.17230469 32.05573242 6.9453125 32.04882812 C4.96350994 32.03703168 2.98174567 32.01909605 1 32 C1 33.32 1 34.64 1 36 C2.27617187 35.97679687 3.55234375 35.95359375 4.8671875 35.9296875 C6.5364525 35.91093171 8.2057238 35.89273131 9.875 35.875 C10.71675781 35.85824219 11.55851562 35.84148437 12.42578125 35.82421875 C13.23144531 35.81777344 14.03710938 35.81132812 14.8671875 35.8046875 C15.61081543 35.79421387 16.35444336 35.78374023 17.12060547 35.77294922 C19 36 19 36 21 38 C16.37540756 39.17700048 11.92133538 39.11408412 7.1875 39.0625 C6.39923828 39.05798828 5.61097656 39.05347656 4.79882812 39.04882812 C2.86585239 39.03711312 0.93291607 39.01917998 -1 39 C-1.02689216 37.52093108 -1.04634621 36.04172517 -1.0625 34.5625 C-1.07990234 33.32693359 -1.07990234 33.32693359 -1.09765625 32.06640625 C-1 30 -1 30 0 29 C2.63575543 28.89975874 5.23954245 28.86124979 7.875 28.875 C8.97521484 28.86919922 8.97521484 28.86919922 10.09765625 28.86328125 C13.32433238 28.86915862 15.91843421 28.9728114 19 30 C19 28.35 19 26.7 19 25 C19.66 25 20.32 25 21 25 C20.95875 23.96875 20.9175 22.9375 20.875 21.875 C20.99575149 18.13170373 21.64872018 15.46265453 23 12 C23.99 12 24.98 12 26 12 C26 10.68 26 9.36 26 8 C17.42 8 8.84 8 0 8 C0 5.36 0 2.72 0 0 Z " fill="#463032" transform="translate(448,366)"/>
<path d="M0 0 C24.75 0 49.5 0 75 0 C73.875 7.875 73.875 7.875 72.58984375 11.62109375 C72.32236328 12.41064453 72.05488281 13.20019531 71.77929688 14.01367188 C71.50150391 14.81353516 71.22371094 15.61339844 70.9375 16.4375 C70.65583984 17.26443359 70.37417969 18.09136719 70.08398438 18.94335938 C69.39482208 20.96412338 68.6981769 22.98233282 68 25 C67.67 25 67.34 25 67 25 C67.43058971 18.7337866 68.04814347 12.97756061 70 7 C70.33 5.68 70.66 4.36 71 3 C49.55 2.67 28.1 2.34 6 2 C6.33 3.98 6.66 5.96 7 8 C6.34 8 5.68 8 5 8 C5 7.34 5 6.68 5 6 C4.360625 5.7525 3.72125 5.505 3.0625 5.25 C1 4 1 4 0 0 Z " fill="#604344" transform="translate(411,340)"/>
<path d="M0 0 C0.33 0 0.66 0 1 0 C1.33 1.65 1.66 3.3 2 5 C30.71 5 59.42 5 89 5 C89 4.34 89 3.68 89 3 C92.465 2.505 92.465 2.505 96 2 C92.2761472 6.18685111 87.29665897 7.59859035 81.82359123 8.26500511 C79.60144157 8.36477467 77.39965638 8.37203896 75.17553711 8.34057617 C73.9299855 8.34123329 73.9299855 8.34123329 72.65927124 8.34190369 C69.94837908 8.33983429 67.2381262 8.31659192 64.52734375 8.29296875 C62.63448932 8.2873662 60.7416305 8.28309922 58.84877014 8.28010559 C53.89213835 8.26870873 48.93577468 8.23928644 43.97924805 8.20599365 C38.91133245 8.17518102 33.8433731 8.16157643 28.77539062 8.14648438 C18.8501433 8.11441139 8.92509404 8.06327809 -1 8 C-0.67 5.36 -0.34 2.72 0 0 Z " fill="#321915" transform="translate(305,421)"/>
<path d="M0 0 C0.33 0.99 0.66 1.98 1 3 C44.56 2.67 88.12 2.34 133 2 C133.99 5.465 133.99 5.465 135 9 C134.45171162 8.349921 133.90342323 7.699842 133.33852005 7.03006363 C130.49467406 4.56132777 129.29500595 4.50465249 125.5836792 4.51898193 C124.48434052 4.51348328 123.38500183 4.50798462 122.25234985 4.50231934 C120.4505275 4.52389099 120.4505275 4.52389099 118.61230469 4.54589844 C117.34375641 4.54531433 116.07520813 4.54473022 114.76821899 4.54412842 C111.29313311 4.54298096 107.81859973 4.56649458 104.34364223 4.59442425 C100.71083313 4.61943302 97.0780113 4.62177947 93.44512939 4.62652588 C86.56735962 4.63895726 79.68984424 4.67178085 72.81218648 4.71192384 C64.98156525 4.75663667 57.15093186 4.77862732 49.32021475 4.79870558 C33.21332759 4.84051352 17.10669626 4.91086848 1 5 C0.67 3.35 0.34 1.7 0 0 Z " fill="#797172" transform="translate(206,238)"/>
<path d="M0 0 C0.99 0 1.98 0 3 0 C3 9.57 3 19.14 3 29 C31.215 28.505 31.215 28.505 60 28 C59.505 24.04 59.505 24.04 59 20 C61.33524782 22.25740623 63.18705073 24.2805761 65 27 C65 28.32 65 29.64 65 31 C56.93347826 31.02312737 48.86697028 31.04091709 40.80042362 31.05181217 C37.05516963 31.05704014 33.30993824 31.06413622 29.56469727 31.07543945 C25.95318313 31.08627141 22.34169079 31.09227749 18.73016167 31.09487724 C17.34939671 31.09673094 15.968633 31.10035049 14.58787727 31.10573006 C12.66024048 31.11294447 10.73258193 31.11340809 8.80493164 31.11352539 C7.70572891 31.115746 6.60652618 31.11796661 5.47401428 31.12025452 C3 31 3 31 2 30 C1.84213692 28.14825294 1.74892644 26.2909089 1.68359375 24.43359375 C1.64169922 23.30888672 1.59980469 22.18417969 1.55664062 21.02539062 C1.51732422 19.84138672 1.47800781 18.65738281 1.4375 17.4375 C1.37272461 15.65569336 1.37272461 15.65569336 1.30664062 13.83789062 C1.20016454 10.89205216 1.09815159 7.9461257 1 5 C0.34 5.66 -0.32 6.32 -1 7 C-0.67 4.69 -0.34 2.38 0 0 Z " fill="#5E4445" transform="translate(420,398)"/>
<path d="M0 0 C2 1.5625 2 1.5625 4 4 C4 6.31 4 8.62 4 11 C-44.18 11 -92.36 11 -142 11 C-142 10.67 -142 10.34 -142 10 C-94.48 9.67 -46.96 9.34 2 9 C1.01 6.525 1.01 6.525 0 4 C0 2.68 0 1.36 0 0 Z " fill="#1F0A09" transform="translate(392,295)"/>
<path d="M0 0 C1.09848267 0.0028299 2.19696533 0.00565979 3.32873535 0.00857544 C6.813021 0.01970764 10.29704296 0.04479952 13.78125 0.0703125 C16.1536421 0.08035129 18.52603826 0.08947556 20.8984375 0.09765625 C26.69279724 0.11962416 32.48700477 0.15303204 38.28125 0.1953125 C39.28125 3.1953125 39.28125 3.1953125 37.84765625 6.33203125 C37.18989027 7.5213253 36.52147185 8.70477621 35.84375 9.8828125 C35.50537109 10.48931641 35.16699219 11.09582031 34.81835938 11.72070312 C33.98167085 13.217315 33.13262169 14.70700439 32.28125 16.1953125 C31.62125 14.8753125 30.96125 13.5553125 30.28125 12.1953125 C30.94125 11.8653125 31.60125 11.5353125 32.28125 11.1953125 C32.61125 10.2053125 32.94125 9.2153125 33.28125 8.1953125 C33.94125 8.1953125 34.60125 8.1953125 35.28125 8.1953125 C35.28125 6.5453125 35.28125 4.8953125 35.28125 3.1953125 C28.62435718 3.17001661 21.9674767 3.15246854 15.31054688 3.14038086 C13.04459164 3.13534324 10.77863967 3.12851298 8.51269531 3.11987305 C5.26105953 3.10778254 2.00946661 3.10207858 -1.2421875 3.09765625 C-2.25993256 3.09249496 -3.27767761 3.08733368 -4.32626343 3.08201599 C-5.26708771 3.08194046 -6.20791199 3.08186493 -7.17724609 3.08178711 C-8.00775482 3.0795665 -8.83826355 3.07734589 -9.69393921 3.07505798 C-11.78839964 3.06622068 -11.78839964 3.06622068 -13.71875 4.1953125 C-16.3911121 4.32946722 -19.04125488 4.23849791 -21.71875 4.1953125 C-16.37186906 -1.15156844 -7.01565643 -0.06881385 0 0 Z " fill="#47292B" transform="translate(173.71875,339.8046875)"/>
<path d="M0 0 C1.125 1.5625 1.125 1.5625 2 4 C1.1875 7.4375 1.1875 7.4375 0 11 C-0.165 11.9075 -0.33 12.815 -0.5 13.75 C-1 16 -1 16 -3 19 C-3.66 19 -4.32 19 -5 19 C-5 19.99 -5 20.98 -5 22 C24.7 22 54.4 22 85 22 C85 22.33 85 22.66 85 23 C54.97 23 24.94 23 -6 23 C-7.21961191 18.12155237 -5.93221354 15.39930942 -4.125 10.9375 C-3.56492634 9.5091843 -3.00502388 8.08080146 -2.4453125 6.65234375 C-1.96835938 5.44707031 -1.49140625 4.24179687 -1 3 C-0.67 2.01 -0.34 1.02 0 0 Z " fill="#60413E" transform="translate(109,406)"/>
<path d="M0 0 C0.33 0.66 0.66 1.32 1 2 C2.32 2.33 3.64 2.66 5 3 C5 12.9 5 22.8 5 33 C4.34 33 3.68 33 3 33 C3 23.76 3 14.52 3 5 C2.01 5 1.02 5 0 5 C0 6.27875 0 7.5575 0 8.875 C-0.88213872 16.87725836 -7.11709792 22.484016 -12.875 27.625 C-16 30 -16 30 -18 30 C-18 29.01 -18 28.02 -18 27 C-17.01 27 -16.02 27 -15 27 C-14.67 25.68 -14.34 24.36 -14 23 C-12.68 23 -11.36 23 -10 23 C-9.67 21.68 -9.34 20.36 -9 19 C-8.34 19 -7.68 19 -7 19 C-6.8453125 17.88625 -6.8453125 17.88625 -6.6875 16.75 C-6 14 -6 14 -4.5625 12.15625 C-2.80058858 9.72481223 -2.10942715 7.6341173 -1.3125 4.75 C-1.06113281 3.85796875 -0.80976563 2.9659375 -0.55078125 2.046875 C-0.36902344 1.37140625 -0.18726563 0.6959375 0 0 Z " fill="#1A0607" transform="translate(420,393)"/>
<path d="M0 0 C1.38137146 0.00424484 1.38137146 0.00424484 2.79064941 0.00857544 C5.70432052 0.01968475 8.61767331 0.04477172 11.53125 0.0703125 C13.5182247 0.08035427 15.50520426 0.08947802 17.4921875 0.09765625 C22.33866252 0.11959371 27.18490247 0.15405889 32.03125 0.1953125 C32.52625 1.1853125 32.52625 1.1853125 33.03125 2.1953125 C32.31860352 4.07470703 32.31860352 4.07470703 31.16015625 6.328125 C30.75087891 7.13378906 30.34160156 7.93945312 29.91992188 8.76953125 C29.48228516 9.61128906 29.04464844 10.45304687 28.59375 11.3203125 C27.9430957 12.59455078 27.9430957 12.59455078 27.27929688 13.89453125 C26.20365532 15.99853342 25.12074234 18.0984583 24.03125 20.1953125 C23.09701355 17.18499506 22.98675089 16.32880982 24.03125 13.1953125 C24.69125 13.1953125 25.35125 13.1953125 26.03125 13.1953125 C26.36125 11.2153125 26.69125 9.2353125 27.03125 7.1953125 C27.69125 7.1953125 28.35125 7.1953125 29.03125 7.1953125 C29.36125 5.5453125 29.69125 3.8953125 30.03125 2.1953125 C25.48199058 2.3157842 20.93285633 2.44010516 16.38378906 2.56762695 C14.84410279 2.61028949 13.3043896 2.65199397 11.76464844 2.69262695 C1.16803986 2.97312542 -9.39366697 3.46143199 -19.96875 4.1953125 C-14.99215847 -0.78127903 -6.58813397 -0.07750835 0 0 Z " fill="#6A4D4D" transform="translate(253.96875,339.8046875)"/>
<path d="M0 0 C2 1 2 1 6 9 C29.265 9.495 29.265 9.495 53 10 C52.505 8.515 52.505 8.515 52 7 C52.66 7 53.32 7 54 7 C54 8.65 54 10.3 54 12 C52.94200195 12.02505615 51.88400391 12.0501123 50.79394531 12.07592773 C46.81289592 12.17115654 42.83197503 12.2710796 38.85107422 12.37231445 C37.13854001 12.41523229 35.42597475 12.45693082 33.71337891 12.49731445 C24.11078949 12.72461128 14.56272078 13.02335621 5 14 C4.67 12.35 4.34 10.7 4 9 C3.34 9 2.68 9 2 9 C1.34 6.03 0.68 3.06 0 0 Z " fill="#736567" transform="translate(265,191)"/>
<path d="M0 0 C0.495 0.99 0.495 0.99 1 2 C0.06553465 4.03144641 -0.93224776 6.03533587 -2 8 C-8.81348437 8.07642878 -15.62685705 8.12875823 -22.44067383 8.16479492 C-24.75582002 8.17982729 -27.070938 8.2002587 -29.38598633 8.22631836 C-32.72484324 8.26294596 -36.0633217 8.27978241 -39.40234375 8.29296875 C-40.94038918 8.31619453 -40.94038918 8.31619453 -42.50950623 8.33988953 C-48.88586651 8.34136334 -54.09825294 7.442144 -60 5 C-57.08160169 4.12012438 -54.92683078 3.97655812 -51.92016602 4.41772461 C-46.70224889 5.08148439 -41.53260994 5.22275922 -36.27734375 5.31640625 C-35.29125626 5.33718735 -34.30516876 5.35796844 -33.28919983 5.37937927 C-30.17203015 5.44420918 -27.05478392 5.50344684 -23.9375 5.5625 C-21.8105393 5.60574869 -19.68358603 5.64936489 -17.55664062 5.69335938 C-12.37117006 5.79982127 -7.18562334 5.90127157 -2 6 C-1.855625 5.195625 -1.71125 4.39125 -1.5625 3.5625 C-1 1 -1 1 0 0 Z " fill="#4F3432" transform="translate(93,421)"/>
<path d="M0 0 C0.76481689 0.0729126 1.52963379 0.1458252 2.31762695 0.22094727 C9.64412842 0.83828025 16.881529 1.07396715 24.23046875 1.02734375 C25.56611374 1.01908066 25.56611374 1.01908066 26.92874146 1.01065063 C30.62781033 0.98298175 34.32671893 0.94764426 38.02563477 0.90405273 C40.76058597 0.87398271 43.49540594 0.85614765 46.23046875 0.83984375 C47.48660225 0.81965431 47.48660225 0.81965431 48.76811218 0.79905701 C54.66007656 0.77338438 54.66007656 0.77338438 58 3 C56.42011244 4.57988756 54.81567013 4.14294946 52.62304688 4.16113281 C51.69117554 4.17074036 50.7593042 4.1803479 49.79919434 4.19024658 C48.78264771 4.19449646 47.76610107 4.19874634 46.71875 4.203125 C45.15477478 4.21167511 45.15477478 4.21167511 43.5592041 4.22039795 C41.34319072 4.22986951 39.12716311 4.23639044 36.91113281 4.24023438 C33.54206084 4.24987959 30.17361453 4.2808576 26.8046875 4.3125 C24.65104529 4.31903591 22.49739871 4.32428407 20.34375 4.328125 C18.84322083 4.3466452 18.84322083 4.3466452 17.31237793 4.36553955 C11.00718113 4.34576864 5.83978922 3.39816863 0 1 C0 0.67 0 0.34 0 0 Z " fill="#482F2C" transform="translate(235,425)"/>
<path d="M0 0 C5.90410675 -0.07481809 11.80793032 -0.12891456 17.71240234 -0.16479492 C19.71603205 -0.17977142 21.71962961 -0.20015981 23.72314453 -0.22631836 C45.07806848 -0.49791465 45.07806848 -0.49791465 55 3 C55 3.33 55 3.66 55 4 C48.25 4.125 48.25 4.125 46 3 C44.64247704 2.88295036 43.27974112 2.82322811 41.91748047 2.79467773 C41.07675995 2.77473251 40.23603943 2.75478729 39.36984253 2.73423767 C38.00727829 2.70916893 38.00727829 2.70916893 36.6171875 2.68359375 C35.68778351 2.66281265 34.75837952 2.64203156 33.80081177 2.62062073 C30.8256179 2.55512354 27.85033423 2.49623948 24.875 2.4375 C22.86066772 2.39431494 20.84634459 2.35070066 18.83203125 2.30664062 C13.88811337 2.19944197 8.94410497 2.09817499 4 2 C4.33 3.98 4.66 5.96 5 8 C2.5 6.25 2.5 6.25 0 4 C0 2.68 0 1.36 0 0 Z " fill="#5D4244" transform="translate(343,340)"/>
<path d="M0 0 C2.3125 0 2.3125 0 5 1 C6.96229693 4.40025541 7.82938387 8.10900466 8.5625 11.9375 C8.706875 12.618125 8.85125 13.29875 9 14 C9.66 14.33 10.32 14.66 11 15 C11 17.97 11 20.94 11 24 C11.66 24 12.32 24 13 24 C13 26.64 13 29.28 13 32 C9.04 32 5.08 32 1 32 C1 31.67 1 31.34 1 31 C4.3 30.67 7.6 30.34 11 30 C9.22948436 23.94297281 7.35320148 17.92938136 5.375 11.9375 C5.15690674 11.27032959 4.93881348 10.60315918 4.71411133 9.91577148 C3.81568932 6.70227989 3.81568932 6.70227989 2 4 C0.68 7.3 -0.64 10.6 -2 14 C-3.06336771 9.74652914 -2.85071588 7.25357941 -2 3 C-1.34 2.01 -0.68 1.02 0 0 Z " fill="#3D2829" transform="translate(312,372)"/>
<path d="M0 0 C0.33 0 0.66 0 1 0 C1.185625 1.2065625 1.185625 1.2065625 1.375 2.4375 C1.58125 3.283125 1.7875 4.12875 2 5 C5.11759111 6.55879555 8.42514486 6.12952133 11.84619141 6.11352539 C12.65602982 6.11367142 13.46586823 6.11381744 14.30024719 6.1139679 C16.98404596 6.11326977 19.66777581 6.10548204 22.3515625 6.09765625 C24.20958417 6.09579171 26.06760633 6.09436798 27.92562866 6.09336853 C32.82142488 6.08954615 37.71719155 6.07971823 42.61297607 6.06866455 C47.60656331 6.05844444 52.60015532 6.05386962 57.59375 6.04882812 C67.39584634 6.03809573 77.19792071 6.02102264 87 6 C83.21744376 8.52170416 80.23514232 8.26720692 75.85668945 8.22705078 C74.61245209 8.22748886 74.61245209 8.22748886 73.34307861 8.22793579 C70.59970663 8.22654179 67.85660582 8.21097732 65.11328125 8.1953125 C63.21184945 8.19158262 61.31041573 8.18873553 59.40898132 8.18673706 C54.40301207 8.17909865 49.39715877 8.15944834 44.39123535 8.1373291 C39.28362598 8.11687517 34.17599789 8.10773631 29.06835938 8.09765625 C19.04552196 8.07620268 9.02277062 8.04206419 -1 8 C-0.67 5.36 -0.34 2.72 0 0 Z " fill="#5F4341" transform="translate(305,421)"/>
<path d="M0 0 C0.99 0 1.98 0 3 0 C3.50833591 1.24663331 4.00631145 2.49749387 4.5 3.75 C4.7784375 4.44609375 5.056875 5.1421875 5.34375 5.859375 C6 8 6 8 6 12 C5.01 12 4.02 12 3 12 C2.67 11.34 2.34 10.68 2 10 C1.34 10 0.68 10 0 10 C-0.66 11.65 -1.32 13.3 -2 15 C-2.66 15 -3.32 15 -4 15 C-4.66 16.32 -5.32 17.64 -6 19 C-7 17 -7 17 -5.8203125 13.33984375 C-5.26306195 11.86939554 -4.69758499 10.40204516 -4.125 8.9375 C-3.84269531 8.19177734 -3.56039063 7.44605469 -3.26953125 6.67773438 C-1.15132548 1.15132548 -1.15132548 1.15132548 0 0 Z " fill="#342525" transform="translate(313,310)"/>
<path d="M0 0 C0.66 0 1.32 0 2 0 C2 0.66 2 1.32 2 2 C2.66 2 3.32 2 4 2 C4.33 3.32 4.66 4.64 5 6 C5.66 6 6.32 6 7 6 C7.12375 6.969375 7.2475 7.93875 7.375 8.9375 C7.684375 10.4534375 7.684375 10.4534375 8 12 C8.66 12.33 9.32 12.66 10 13 C12.84171505 15.04603484 13.02142463 16.11491393 13.6875 19.6875 C13.790625 20.780625 13.89375 21.87375 14 23 C14.99 23 15.98 23 17 23 C18.75 25.3125 18.75 25.3125 20 28 C19.67 28.99 19.34 29.98 19 31 C19.66 31 20.32 31 21 31 C21.12375 31.804375 21.2475 32.60875 21.375 33.4375 C21.58125 34.283125 21.7875 35.12875 22 36 C22.66 36.33 23.32 36.66 24 37 C23.34 37.66 22.68 38.32 22 39 C21.68885254 38.45287354 21.37770508 37.90574707 21.05712891 37.34204102 C15.09836319 26.87101363 9.12351269 16.41363627 2.94775391 6.06860352 C0 1.10515089 0 1.10515089 0 0 Z " fill="#584545" transform="translate(279,133)"/>
<path d="M0 0 C2 3.75 2 3.75 2 6 C-2.18731918 7.57366315 -5.66588433 8.25586427 -10.1328125 8.265625 C-11.26847656 8.26820313 -12.40414062 8.27078125 -13.57421875 8.2734375 C-15.33185547 8.26183594 -15.33185547 8.26183594 -17.125 8.25 C-18.30449219 8.25773437 -19.48398437 8.26546875 -20.69921875 8.2734375 C-21.83230469 8.27085937 -22.96539062 8.26828125 -24.1328125 8.265625 C-25.67799561 8.26224121 -25.67799561 8.26224121 -27.25439453 8.25878906 C-30.00358498 7.9996621 -31.65492682 7.41195138 -34 6 C-34 5.34 -34 4.68 -34 4 C-23.44 4 -12.88 4 -2 4 C-1.34 2.68 -0.68 1.36 0 0 Z " fill="#392627" transform="translate(77,398)"/>
<path d="M0 0 C1.41466553 0.00424484 1.41466553 0.00424484 2.85791016 0.00857544 C5.84290756 0.01968808 8.82759469 0.04477578 11.8125 0.0703125 C13.84765189 0.08035384 15.88280852 0.08947766 17.91796875 0.09765625 C22.88293037 0.11959815 27.84766275 0.15406577 32.8125 0.1953125 C33.06988538 5.06902915 31.79494053 7.30910212 28.8125 11.1953125 C28.4825 11.1953125 28.1525 11.1953125 27.8125 11.1953125 C27.8125 9.5453125 27.8125 7.8953125 27.8125 6.1953125 C28.4725 6.1953125 29.1325 6.1953125 29.8125 6.1953125 C29.8125 5.2053125 29.8125 4.2153125 29.8125 3.1953125 C30.4725 3.1953125 31.1325 3.1953125 31.8125 3.1953125 C31.8125 2.5353125 31.8125 1.8753125 31.8125 1.1953125 C26.51027678 1.28916391 21.20849318 1.39532748 15.90673828 1.51269531 C14.10472285 1.55087772 12.30263399 1.58574901 10.50048828 1.6171875 C7.90370519 1.66307213 5.3074229 1.72102685 2.7109375 1.78125 C1.51058365 1.79857681 1.51058365 1.79857681 0.28598022 1.81625366 C-4.2545568 1.93491059 -7.89391558 2.56012387 -12.1875 4.1953125 C-14.89811275 4.42195236 -17.45898292 4.2893993 -20.1875 4.1953125 C-15.1632833 -0.8289042 -6.64322155 -0.0762554 0 0 Z " fill="#6F5354" transform="translate(52.1875,339.8046875)"/>
<path d="M0 0 C4.19920237 -0.04953687 8.39824869 -0.08578411 12.59765625 -0.10986328 C14.02542078 -0.11990427 15.45316483 -0.13353981 16.88085938 -0.15087891 C18.93624941 -0.17521152 20.99136692 -0.18650202 23.046875 -0.1953125 C24.28276367 -0.20578613 25.51865234 -0.21625977 26.79199219 -0.22705078 C29.81659371 -0.01298081 31.46985651 0.40346841 34 2 C34 3.65 34 5.3 34 7 C33.34 7 32.68 7 32 7 C31.67 6.01 31.34 5.02 31 4 C30.16750732 3.9498877 29.33501465 3.89977539 28.47729492 3.84814453 C25.3849942 3.65772288 22.2933434 3.45926888 19.2019043 3.25537109 C17.20726057 3.12627889 15.21202426 3.00645202 13.21679688 2.88671875 C11.96318359 2.80292969 10.70957031 2.71914063 9.41796875 2.6328125 C8.26063232 2.55949707 7.1032959 2.48618164 5.91088867 2.41064453 C3 2 3 2 0 0 Z " fill="#481E20" transform="translate(157,395)"/>
<path d="M0 0 C3.13439652 4.70159478 4.66585902 10.01209258 6.5625 15.3125 C6.97435547 16.44107422 7.38621094 17.56964844 7.81054688 18.73242188 C8.20435547 19.82748047 8.59816406 20.92253906 9.00390625 22.05078125 C9.54253296 23.54605347 9.54253296 23.54605347 10.09204102 25.0715332 C11.01248534 28.04026934 11.56114267 30.92628551 12 34 C11.34 34 10.68 34 10 34 C8.14223235 30.86501708 7.79859524 28.62528568 8 25 C7.34 24.67 6.68 24.34 6 24 C5.66666667 22 5.33333333 20 5 18 C4.34 17.67 3.68 17.34 3 17 C-0.17221678 11.26560813 -0.35164297 6.47283543 0 0 Z " fill="#4C3B3A" transform="translate(326,340)"/>
<path d="M0 0 C2 1.5625 2 1.5625 4 4 C4 6.31 4 8.62 4 11 C-11.18 11 -26.36 11 -42 11 C-42 10.67 -42 10.34 -42 10 C-27.48 9.67 -12.96 9.34 2 9 C1.34 7.35 0.68 5.7 0 4 C0 2.68 0 1.36 0 0 Z " fill="#26100D" transform="translate(392,295)"/>
<path d="M0 0 C0.89034986 2.49297962 1.21044954 3.55104099 0.0625 6 C-0.288125 6.66 -0.63875 7.32 -1 8 C-1 9.32 -1 10.64 -1 12 C-1.66 12 -2.32 12 -3 12 C-3.33 12.99 -3.66 13.98 -4 15 C-4.66 15 -5.32 15 -6 15 C-6.66 16.98 -7.32 18.96 -8 21 C-8.66 21 -9.32 21 -10 21 C-10 21.66 -10 22.32 -10 23 C-10.66 23 -11.32 23 -12 23 C-12.33 23.99 -12.66 24.98 -13 26 C-13.33 25.34 -13.66 24.68 -14 24 C-13.04370117 21.89282227 -13.04370117 21.89282227 -11.54296875 19.31640625 C-11.00736328 18.38892578 -10.47175781 17.46144531 -9.91992188 16.50585938 C-9.34822266 15.53455078 -8.77652344 14.56324219 -8.1875 13.5625 C-7.62740234 12.59505859 -7.06730469 11.62761719 -6.49023438 10.63085938 C-4.39840175 7.02950834 -2.31069348 3.46604022 0 0 Z " fill="#4D3D3E" transform="translate(190,137)"/>
<path d="M0 0 C0.99 0.33 1.98 0.66 3 1 C3.9140625 3.6171875 3.9140625 3.6171875 4.625 6.875 C5.65689673 11.48012733 5.65689673 11.48012733 7 16 C2.13948404 18.59227518 -2.65271133 18.18689553 -8 18 C-7.505 16.515 -7.505 16.515 -7 15 C-3.7 14.67 -0.4 14.34 3 14 C2.7834375 13.24074219 2.566875 12.48148437 2.34375 11.69921875 C2.0653125 10.70535156 1.786875 9.71148437 1.5 8.6875 C1.2215625 7.70136719 0.943125 6.71523438 0.65625 5.69921875 C0 3 0 3 0 0 Z " fill="#382728" transform="translate(118,388)"/>
<path d="M0 0 C14.85 0 29.7 0 45 0 C45 0.33 45 0.66 45 1 C31.14 1 17.28 1 3 1 C3.33 2.98 3.66 4.96 4 7 C3.34 7 2.68 7 2 7 C2 6.34 2 5.68 2 5 C1.01 4.67 0.02 4.34 -1 4 C-0.67 2.68 -0.34 1.36 0 0 Z " fill="#3A1C1E" transform="translate(414,341)"/>
<path d="M0 0 C1.13378906 1.71801758 1.13378906 1.71801758 2 4 C1.24902344 6.18237305 1.24902344 6.18237305 -0.140625 8.51171875 C-0.63433594 9.35154297 -1.12804687 10.19136719 -1.63671875 11.05664062 C-2.16910156 11.92482422 -2.70148438 12.79300781 -3.25 13.6875 C-3.76691406 14.56728516 -4.28382813 15.44707031 -4.81640625 16.35351562 C-8.6903932 22.8451966 -8.6903932 22.8451966 -11 24 C-11 22.35 -11 20.7 -11 19 C-10.01 18.67 -9.02 18.34 -8 18 C-8.04125 17.071875 -8.0825 16.14375 -8.125 15.1875 C-8 12 -8 12 -6 9 C-5.01 9 -4.02 9 -3 9 C-2.87625 8.2575 -2.7525 7.515 -2.625 6.75 C-2.04513299 4.19858515 -1.26291261 2.2732427 0 0 Z " fill="#534345" transform="translate(233,100)"/>
<path d="M0 0 C1.32 0.33 2.64 0.66 4 1 C3.01 1.33 2.02 1.66 1 2 C1 2.66 1 3.32 1 4 C4.13654158 4.91023904 7.02104826 5.16103754 10.28125 5.24609375 C11.28800781 5.27896484 12.29476562 5.31183594 13.33203125 5.34570312 C15.44390093 5.40689787 17.5558873 5.46419012 19.66796875 5.51757812 C20.67472656 5.55173828 21.68148437 5.58589844 22.71875 5.62109375 C23.63591797 5.6461499 24.55308594 5.67120605 25.49804688 5.69702148 C28 6 28 6 32 8 C19.13 7.505 19.13 7.505 6 7 C6 7.66 6 8.32 6 9 C2.5625 8.1875 2.5625 8.1875 -1 7 C-2 4 -2 4 -1.0625 1.8125 C-0.5365625 0.9153125 -0.5365625 0.9153125 0 0 Z " fill="#46302F" transform="translate(166,366)"/>
<path d="M0 0 C0.66 0.33 1.32 0.66 2 1 C0.625 3.5 0.625 3.5 -1 6 C-1.66 6 -2.32 6 -3 6 C-3 6.66 -3 7.32 -3 8 C-3.99 8 -4.98 8 -6 8 C-8.13031092 16.60397419 -8.58440013 25.1849081 -9 34 C-9.33 34 -9.66 34 -10 34 C-10.14685185 30.66714074 -10.23457648 27.33512655 -10.3125 24 C-10.35439453 23.06542969 -10.39628906 22.13085938 -10.43945312 21.16796875 C-10.57238134 13.56447466 -8.61914185 9.01798606 -3.56445312 3.40625 C-2.41466625 2.23199958 -1.21290133 1.10893836 0 0 Z " fill="#675051" transform="translate(150,344)"/>
<path d="M0 0 C10.56 0 21.12 0 32 0 C31.17068374 5.80521382 30.53208034 8.52435851 27.9375 13.4375 C27.38964844 14.48808594 26.84179688 15.53867187 26.27734375 16.62109375 C25.85582031 17.40613281 25.43429687 18.19117188 25 19 C24.06576355 15.98968256 23.95550089 15.13349732 25 12 C25.66 12 26.32 12 27 12 C27.33 10.02 27.66 8.04 28 6 C28.66 6 29.32 6 30 6 C30.33 4.35 30.66 2.7 31 1 C20.77 1 10.54 1 0 1 C0 0.67 0 0.34 0 0 Z " fill="#381B1C" transform="translate(253,341)"/>
<path d="M0 0 C0.33 0.66 0.66 1.32 1 2 C0.06421005 4.35981813 -0.93347808 6.69631264 -2 9 C-2.66 9 -3.32 9 -4 9 C-4.02126953 9.88751953 -4.02126953 9.88751953 -4.04296875 10.79296875 C-4.3051306 15.13635297 -4.51597684 17.39824148 -7.3125 20.875 C-12.12871287 24.68316832 -12.12871287 24.68316832 -14 26 C-12.42370051 20.01006195 -9.23215126 15.20482573 -6 10 C-4.87199904 8.12680384 -3.74687083 6.25187395 -2.625 4.375 C-1.75 2.91666667 -0.875 1.45833333 0 0 Z " fill="#655757" transform="translate(205,111)"/>
<path d="M0 0 C1 2 1 2 0.44140625 3.9453125 C0.15136719 4.66460937 -0.13867188 5.38390625 -0.4375 6.125 C-0.72496094 6.84945312 -1.01242188 7.57390625 -1.30859375 8.3203125 C-1.53675781 8.87460938 -1.76492187 9.42890625 -2 10 C-1.34 10.33 -0.68 10.66 0 11 C-0.78375 11.165 -1.5675 11.33 -2.375 11.5 C-5.1093471 12.70396899 -5.1093471 12.70396899 -5.77734375 14.9140625 C-6.26413052 16.92516699 -6.63853255 18.962638 -7 21 C-8.32 21.33 -9.64 21.66 -11 22 C-11 22.66 -11 23.32 -11 24 C-11.66 24 -12.32 24 -13 24 C-11.31784705 19.33751086 -8.94630388 15.16580137 -6.5 10.875 C-6.09652344 10.15957031 -5.69304687 9.44414063 -5.27734375 8.70703125 C-3.59332535 5.73359942 -1.89727817 2.84591726 0 0 Z " fill="#514243" transform="translate(230,68)"/>
<path d="M0 0 C0.66 0 1.32 0 2 0 C1.37240135 2.92879371 0.41377341 5.36095629 -1 8 C-1.66 8 -2.32 8 -3 8 C-4.06280504 14.29645003 -4.32111895 20.56266607 -4.5625 26.9375 C-4.60568359 28.00291016 -4.64886719 29.06832031 -4.69335938 30.16601562 C-4.79874489 32.77723443 -4.90087088 35.38853746 -5 38 C-5.33 38 -5.66 38 -6 38 C-8.47109183 24.10010847 -6.46933589 12.44103055 0 0 Z " fill="#674E4F" transform="translate(13,359)"/>
<path d="M0 0 C1.37432457 3.81756824 0.67975039 7.07255329 0 11 C-1.32 11.33 -2.64 11.66 -4 12 C-4 13.32 -4 14.64 -4 16 C-4.66 16 -5.32 16 -6 16 C-6 16.66 -6 17.32 -6 18 C-7.32 18.33 -8.64 18.66 -10 19 C-8.14287454 11.94292325 -4.00656677 6.00985015 0 0 Z " fill="#5A4B4B" transform="translate(216,92)"/>
<path d="M0 0 C2.0625 0.4375 2.0625 0.4375 4 1 C-0.5594402 6.99240712 -4.98435802 12.42811209 -11 17 C-11.66 17 -12.32 17 -13 17 C-13 16.01 -13 15.02 -13 14 C-12.01 14 -11.02 14 -10 14 C-9.67 12.68 -9.34 11.36 -9 10 C-7.68 10 -6.36 10 -5 10 C-4.67 8.68 -4.34 7.36 -4 6 C-3.34 6 -2.68 6 -2 6 C-1.855625 5.195625 -1.71125 4.39125 -1.5625 3.5625 C-1 1 -1 1 0 0 Z " fill="#564746" transform="translate(415,406)"/>
<path d="M0 0 C3.93711437 -0.14492719 7.87354625 -0.23394537 11.8125 -0.3125 C13.49182617 -0.3753418 13.49182617 -0.3753418 15.20507812 -0.43945312 C16.81479492 -0.46362305 16.81479492 -0.46362305 18.45703125 -0.48828125 C19.44678955 -0.51446533 20.43654785 -0.54064941 21.45629883 -0.56762695 C24 0 24 0 25.8034668 2.32348633 C27.104381 5.23348886 27.63290927 7.84301975 28 11 C27.34 11 26.68 11 26 11 C24.12379578 7.83390538 23.90337178 5.64167599 24 2 C20.77085248 1.97082772 17.54173917 1.95314337 14.3125 1.9375 C13.40048828 1.92912109 12.48847656 1.92074219 11.54882812 1.91210938 C10.21948242 1.90727539 10.21948242 1.90727539 8.86328125 1.90234375 C8.05157471 1.89710693 7.23986816 1.89187012 6.40356445 1.88647461 C3.85135327 2.0070209 1.48973863 2.440051 -1 3 C-0.67 2.01 -0.34 1.02 0 0 Z " fill="#4B3536" transform="translate(100,340)"/>
<path d="M0 0 C-1.30770395 3.49547406 -2.84892979 6.57927449 -4.8125 9.75 C-7.67358302 14.43177222 -10.37128856 19.18457285 -13 24 C-13.33 22.68 -13.66 21.36 -14 20 C-13.34 20 -12.68 20 -12 20 C-12 19.01 -12 18.02 -12 17 C-11.34 17 -10.68 17 -10 17 C-9.89042969 16.36191406 -9.78085938 15.72382813 -9.66796875 15.06640625 C-9.50941406 14.24011719 -9.35085937 13.41382813 -9.1875 12.5625 C-9.03667969 11.73878906 -8.88585937 10.91507813 -8.73046875 10.06640625 C-8.48941406 9.38449219 -8.24835938 8.70257813 -8 8 C-7.01 7.67 -6.02 7.34 -5 7 C-4.87625 6.030625 -4.7525 5.06125 -4.625 4.0625 C-4.41875 3.051875 -4.2125 2.04125 -4 1 C-2 0 -2 0 0 0 Z " fill="#5A4A4B" transform="translate(197,168)"/>
<path d="M0 0 C0.66 0 1.32 0 2 0 C1.67 1.65 1.34 3.3 1 5 C-13.85 5 -28.7 5 -44 5 C-44 4.67 -44 4.34 -44 4 C-29.48 4 -14.96 4 0 4 C-0.495 2.515 -0.495 2.515 -1 1 C-0.67 0.67 -0.34 0.34 0 0 Z " fill="#160302" transform="translate(90,422)"/>
<path d="M0 0 C0 0.66 0 1.32 0 2 C-1.50903877 3.35373964 -3.08412698 4.63443401 -4.6875 5.875 C-5.99267578 6.89207031 -5.99267578 6.89207031 -7.32421875 7.9296875 C-8.64873047 8.95449219 -8.64873047 8.95449219 -10 10 C-11.6689101 11.33052419 -13.33626195 12.66301411 -15 14 C-15.66 13.67 -16.32 13.34 -17 13 C-6.67741935 0 -6.67741935 0 0 0 Z " fill="#7A6466" transform="translate(32,344)"/>
<path d="M0 0 C0.66 0.33 1.32 0.66 2 1 C1.45859375 1.70576172 1.45859375 1.70576172 0.90625 2.42578125 C0.4421875 3.04839844 -0.021875 3.67101562 -0.5 4.3125 C-0.9640625 4.92738281 -1.428125 5.54226563 -1.90625 6.17578125 C-3.25711283 8.07433005 -3.25711283 8.07433005 -3 11 C-6 13 -6 13 -9 13 C-9 13.66 -9 14.32 -9 15 C-9.99 15.33 -10.98 15.66 -12 16 C-10.58794973 11.70983633 -8.50383651 9.03782149 -5.4375 5.75 C-4.22900391 4.44289063 -4.22900391 4.44289063 -2.99609375 3.109375 C-1 1 -1 1 0 0 Z " fill="#4C393D" transform="translate(225,348)"/>
<path d="M0 0 C0.33 0 0.66 0 1 0 C1 1.98 1 3.96 1 6 C1.66 5.67 2.32 5.34 3 5 C4.44848582 4.91657841 5.90070869 4.89267139 7.3515625 4.90234375 C8.20234375 4.90556641 9.053125 4.90878906 9.9296875 4.91210938 C10.81914062 4.92048828 11.70859375 4.92886719 12.625 4.9375 C13.5221875 4.94201172 14.419375 4.94652344 15.34375 4.95117188 C17.56256648 4.96297409 19.78125018 4.97943845 22 5 C20.36292167 6.98510058 19.49903853 7.91847304 16.9152832 8.34057617 C16.13499756 8.32486572 15.35471191 8.30915527 14.55078125 8.29296875 C13.70322266 8.28330078 12.85566406 8.27363281 11.98242188 8.26367188 C10.66081055 8.2259668 10.66081055 8.2259668 9.3125 8.1875 C8.41982422 8.17396484 7.52714844 8.16042969 6.60742188 8.14648438 C4.40433834 8.11114079 2.20247418 8.06180493 0 8 C0 5.36 0 2.72 0 0 Z " fill="#5C4A47" transform="translate(448,366)"/>
<path d="M0 0 C1.32 0 2.64 0 4 0 C2.25740319 15.74487472 2.25740319 15.74487472 -1 23 C-1.33 23 -1.66 23 -2 23 C-1.56941029 16.7337866 -0.95185653 10.97756061 1 5 C1.34135927 3.66869885 1.67925956 2.33641852 2 1 C1.34 0.67 0.68 0.34 0 0 Z " fill="#1E0A0B" transform="translate(480,342)"/>
<path d="M0 0 C0.495 2.97 0.495 2.97 1 6 C0.49694336 5.35256836 -0.00611328 4.70513672 -0.52441406 4.03808594 C-3.79200089 1.34796613 -6.55475077 1.39772959 -10.609375 1.390625 C-11.69958954 1.36582062 -11.69958954 1.36582062 -12.81182861 1.34051514 C-15.12463869 1.29207639 -17.43679157 1.27067511 -19.75 1.25 C-21.32164757 1.22183659 -22.89326459 1.19190863 -24.46484375 1.16015625 C-28.30984169 1.08631953 -32.15447572 1.03672052 -36 1 C-36 0.67 -36 0.34 -36 0 C-31.51618182 -0.16797178 -27.03217687 -0.32849276 -22.54785156 -0.48217773 C-21.02303937 -0.53547812 -19.49829635 -0.59079772 -17.97363281 -0.64819336 C-15.77944855 -0.73043951 -13.58511635 -0.80537075 -11.390625 -0.87890625 C-10.7113092 -0.90594131 -10.03199341 -0.93297638 -9.33209229 -0.96083069 C-6.04687715 -1.06392959 -3.13890215 -1.03583771 0 0 Z " fill="#5F5656" transform="translate(340,241)"/>
<path d="M0 0 C1.31845017 2.99647767 0.93359561 4.19921317 -0.125 7.375 C-1.88886633 11.13845673 -4.13900483 13.99228713 -7 17 C-7.66 17 -8.32 17 -9 17 C-7.57997238 13.24069983 -5.87350167 9.77000304 -3.9375 6.25 C-3.14666016 4.80367187 -3.14666016 4.80367187 -2.33984375 3.328125 C-1 1 -1 1 0 0 Z " fill="#574A4A" transform="translate(226,204)"/>
<path d="M0 0 C0.33 0 0.66 0 1 0 C1.6875 2.8125 1.6875 2.8125 2 6 C1 7 0 8 -1 9 C-1.58192246 11.67470781 -1.77553528 14.26153043 -2 17 C-2.66 17 -3.32 17 -4 17 C-4.66 18.32 -5.32 19.64 -6 21 C-7 19 -7 19 -6.57861328 17.24414062 C-6.32837402 16.55513672 -6.07813477 15.86613281 -5.8203125 15.15625 C-5.41619141 14.02896484 -5.41619141 14.02896484 -5.00390625 12.87890625 C-4.71386719 12.09386719 -4.42382812 11.30882812 -4.125 10.5 C-3.70154297 9.32244141 -3.70154297 9.32244141 -3.26953125 8.12109375 C-1.19618595 2.39237189 -1.19618595 2.39237189 0 0 Z " fill="#453537" transform="translate(98,343)"/>
<path d="M0 0 C1.921875 0.30859375 1.921875 0.30859375 4 1 C5.25 4.0625 5.25 4.0625 6 7 C5.01 7 4.02 7 3 7 C3 6.01 3 5.02 3 4 C-0.11785113 4.64644661 -0.11785113 4.64644661 -1 7 C-1.66 7 -2.32 7 -3 7 C-3.33 8.65 -3.66 10.3 -4 12 C-4.99 12.33 -5.98 12.66 -7 13 C-5.35821735 8.22390502 -2.73453298 4.20617096 0 0 Z " fill="#695B5C" transform="translate(249,164)"/>
<path d="M0 0 C1.32 0.33 2.64 0.66 4 1 C6.05336642 7.16009926 7.11897635 12.64307094 5 19 C4.67 19.66 4.34 20.32 4 21 C3.34 21 2.68 21 2 21 C2.09539062 20.29875 2.19078125 19.5975 2.2890625 18.875 C3.09552732 11.97316152 3.18075597 6.36151195 0 0 Z " fill="#553D3E" transform="translate(394,373)"/>
<path d="M0 0 C0.33 0 0.66 0 1 0 C1 6.93 1 13.86 1 21 C-0.32 21 -1.64 21 -3 21 C-3.33 17.37 -3.66 13.74 -4 10 C-3.01 11.32 -2.02 12.64 -1 14 C-0.67 9.38 -0.34 4.76 0 0 Z " fill="#786161" transform="translate(422,353)"/>
<path d="M0 0 C2.61943903 2.61943903 3.44197838 5.57473973 4.625 9 C4.85445313 9.64195312 5.08390625 10.28390625 5.3203125 10.9453125 C7 15.72442336 7 15.72442336 7 18 C5.68 17.34 4.36 16.68 3 16 C3 14.68 3 13.36 3 12 C2.34 12 1.68 12 1 12 C0.67 8.04 0.34 4.08 0 0 Z " fill="#3F2F30" transform="translate(319,322)"/>
<path d="M0 0 C3.14643589 2.89390199 5.17595619 5.73546556 7.1875 9.5 C7.69667969 10.4384375 8.20585937 11.376875 8.73046875 12.34375 C9.81012614 14.60272546 10.5217064 16.55666885 11 19 C10.34 19 9.68 19 9 19 C9 18.01 9 17.02 9 16 C8.34 16 7.68 16 7 16 C7 15.01 7 14.02 7 13 C6.34 13 5.68 13 5 13 C2.8480563 9.77208445 2.79913557 8.71599191 3 5 C2.34 5 1.68 5 1 5 C0.67 5.66 0.34 6.32 0 7 C0 4.69 0 2.38 0 0 Z " fill="#725C5C" transform="translate(353,227)"/>
<path d="M0 0 C2 1 2 1 2.74609375 2.77734375 C3.20603348 4.21433058 3.66437437 5.65183015 4.12109375 7.08984375 C4.95959902 9.35151853 4.95959902 9.35151853 8 11 C8.1875 13.625 8.1875 13.625 8 16 C8.66 16.33 9.32 16.66 10 17 C9.67 17.99 9.34 18.98 9 20 C7.29586336 17.23907588 5.61469315 14.46486002 3.9375 11.6875 C3.45216797 10.90181641 2.96683594 10.11613281 2.46679688 9.30664062 C2.01240234 8.54931641 1.55800781 7.79199219 1.08984375 7.01171875 C0.66566162 6.31522217 0.24147949 5.61872559 -0.19555664 4.90112305 C-1 3 -1 3 0 0 Z " fill="#605252" transform="translate(269,112)"/>
<path d="M0 0 C0.66 0.33 1.32 0.66 2 1 C1.51273438 1.83917969 1.51273438 1.83917969 1.015625 2.6953125 C-1.19361494 7.70858775 -0.42102048 13.47380074 1 18.625 C1.33 19.40875 1.66 20.1925 2 21 C1.34 21 0.68 21 0 21 C-2.1685544 18.77354731 -2.94918843 17.41677581 -3.328125 14.30859375 C-3.30234375 13.36113281 -3.2765625 12.41367187 -3.25 11.4375 C-3.23453125 10.48746094 -3.2190625 9.53742188 -3.203125 8.55859375 C-3 6 -3 6 -2 3 C-1.34 3 -0.68 3 0 3 C0 2.01 0 1.02 0 0 Z " fill="#453132" transform="translate(33,374)"/>
<path d="M0 0 C1.01320312 0.00902344 2.02640625 0.01804687 3.0703125 0.02734375 C5.54712801 0.05070993 8.02343379 0.08346832 10.5 0.125 C10.5 0.455 10.5 0.785 10.5 1.125 C9.87955811 1.14481934 9.25911621 1.16463867 8.61987305 1.18505859 C5.80865463 1.28031845 2.99817834 1.38999302 0.1875 1.5 C-1.27719727 1.54640625 -1.27719727 1.54640625 -2.77148438 1.59375 C-4.17817383 1.65175781 -4.17817383 1.65175781 -5.61328125 1.7109375 C-6.47735596 1.7423584 -7.34143066 1.7737793 -8.23168945 1.80615234 C-10.77742445 1.99688037 -10.77742445 1.99688037 -13.5 4.125 C-15.54296875 4.3203125 -15.54296875 4.3203125 -17.6875 4.25 C-19.5746875 4.188125 -19.5746875 4.188125 -21.5 4.125 C-16.17697136 -1.19802864 -6.98258705 -0.1191255 0 0 Z " fill="#886F70" transform="translate(173.5,339.875)"/>
<path d="M0 0 C1.17338724 4.40020217 1.12967531 6.84713314 -1 11 C-3.125 11.8125 -3.125 11.8125 -5 12 C-5 12.66 -5 13.32 -5 14 C-5.66 14 -6.32 14 -7 14 C-5.53967505 8.68972746 -3.01679014 4.53669968 0 0 Z " fill="#544141" transform="translate(110,276)"/>
<path d="M0 0 C1.19594292 3.99221233 0.68790338 6.14193513 -1 10 C-2.29233607 11.37310707 -3.62437146 12.71034824 -5 14 C-6.23512079 16.13309192 -6.23512079 16.13309192 -7 18 C-7.66 18 -8.32 18 -9 18 C-7.65072455 13.46152802 -5.80840652 9.68067754 -3.375 5.625 C-2.74335938 4.56539062 -2.11171875 3.50578125 -1.4609375 2.4140625 C-0.73777344 1.21910156 -0.73777344 1.21910156 0 0 Z " fill="#6E565A" transform="translate(161,187)"/>
<path d="M0 0 C0.33 0.66 0.66 1.32 1 2 C1.99 2.33 2.98 2.66 4 3 C4 7.62 4 12.24 4 17 C3.67 17 3.34 17 3 17 C3 13.04 3 9.08 3 5 C2.01 5 1.02 5 0 5 C-0.33 7.64 -0.66 10.28 -1 13 C-1.99 13 -2.98 13 -4 13 C-3.52140759 11.39566191 -3.04210442 9.79153584 -2.5625 8.1875 C-2.29566406 7.29417969 -2.02882813 6.40085937 -1.75390625 5.48046875 C-1.19612127 3.64526945 -0.60655425 1.81966274 0 0 Z " fill="#190809" transform="translate(420,393)"/>
<path d="M0 0 C0.33 0.99 0.66 1.98 1 3 C-1.87509869 5.87509869 -5.03617766 7.15315106 -9 8 C-11.60885546 7.6818469 -13.52814168 6.97844392 -16 6 C-16 5.67 -16 5.34 -16 5 C-15.18015625 4.89042969 -14.3603125 4.78085937 -13.515625 4.66796875 C-12.43796875 4.50941406 -11.3603125 4.35085938 -10.25 4.1875 C-9.18265625 4.03667969 -8.1153125 3.88585937 -7.015625 3.73046875 C-3.94548906 2.98679593 -2.33919522 2.07234528 0 0 Z " fill="#493C3B" transform="translate(391,398)"/>
<path d="M0 0 C1.32 0 2.64 0 4 0 C4.33 2.31 4.66 4.62 5 7 C4.01 6.01 3.02 5.02 2 4 C0.68 7.3 -0.64 10.6 -2 14 C-3.06336771 9.74652914 -2.85071588 7.25357941 -2 3 C-1.34 2.01 -0.68 1.02 0 0 Z " fill="#503E3C" transform="translate(312,372)"/>
<path d="M0 0 C-3.88172004 2.72065584 -6.46002175 3.36265978 -11.17578125 3.29296875 C-12.91118164 3.2784668 -12.91118164 3.2784668 -14.68164062 3.26367188 C-16.47891602 3.2259668 -16.47891602 3.2259668 -18.3125 3.1875 C-20.1387793 3.16719727 -20.1387793 3.16719727 -22.00195312 3.14648438 C-25.00175345 3.11119261 -28.00064975 3.06188481 -31 3 C-31 2.67 -31 2.34 -31 2 C-23.08 2 -15.16 2 -7 2 C-7 1.34 -7 0.68 -7 0 C-3.98968256 -0.93423645 -3.13349732 -1.04449911 0 0 Z " fill="#3A2827" transform="translate(401,424)"/>
<path d="M0 0 C1.32 0 2.64 0 4 0 C4.33 1.65 4.66 3.3 5 5 C4.01 4.34 3.02 3.68 2 3 C1.74605469 3.55429687 1.49210938 4.10859375 1.23046875 4.6796875 C0.88628906 5.40414063 0.54210937 6.12859375 0.1875 6.875 C-0.14894531 7.59429687 -0.48539063 8.31359375 -0.83203125 9.0546875 C-2 11 -2 11 -5 13 C-5 11.68 -5 10.36 -5 9 C-4.34 9 -3.68 9 -3 9 C-2.01 6.03 -1.02 3.06 0 0 Z " fill="#5D4043" transform="translate(213,408)"/>
<path d="M0 0 C3.18678372 2.92352767 5.21723295 5.81612841 7.25 9.625 C7.77078125 10.58664063 8.2915625 11.54828125 8.828125 12.5390625 C10 15 10 15 10 17 C8 17 8 17 5.9375 15.5 C3.22771513 12.00350339 3.29179502 9.37692535 3 5 C2.34 5 1.68 5 1 5 C0.67 3.35 0.34 1.7 0 0 Z " fill="#6E5758" transform="translate(276,94)"/>
<path d="M0 0 C0.33 0 0.66 0 1 0 C2.87443946 7.51479821 2.87443946 7.51479821 0.73046875 11.15625 C-0.7739001 12.87552869 -2.30375551 14.47092164 -4 16 C-5 14 -5 14 -4.00390625 10.7421875 C-3.53110016 9.4502948 -3.05028031 8.16131362 -2.5625 6.875 C-2.31951172 6.21628906 -2.07652344 5.55757813 -1.82617188 4.87890625 C-1.22421679 3.25008662 -0.61297588 1.62470425 0 0 Z " fill="#4C3B3B" transform="translate(283,386)"/>
<path d="M0 0 C3.12492251 -0.05791844 6.24970766 -0.09356746 9.375 -0.125 C10.26445312 -0.14175781 11.15390625 -0.15851563 12.0703125 -0.17578125 C12.92109375 -0.18222656 13.771875 -0.18867188 14.6484375 -0.1953125 C15.82672119 -0.21102295 15.82672119 -0.21102295 17.02880859 -0.22705078 C19 0 19 0 21 2 C18.16615892 2.82514784 15.83064749 3.07936233 12.890625 2.87890625 C12.13652344 2.83056641 11.38242187 2.78222656 10.60546875 2.73242188 C9.82816406 2.67634766 9.05085938 2.62027344 8.25 2.5625 C7.45722656 2.51029297 6.66445313 2.45808594 5.84765625 2.40429688 C3.89806003 2.27510676 1.94897114 2.13830035 0 2 C0 1.34 0 0.68 0 0 Z " fill="#6C5A5B" transform="translate(448,402)"/>
<path d="M0 0 C-0.556875 0.391875 -1.11375 0.78375 -1.6875 1.1875 C-4.34617371 3.27132534 -6.6441183 5.58212142 -9 8 C-9.66 8.66 -10.32 9.32 -11 10 C-11.125 6.625 -11.125 6.625 -11 3 C-7.72430636 -0.27569364 -4.48909309 -0.12469703 0 0 Z " fill="#3D3131" transform="translate(246,367)"/>
<path d="M0 0 C1.16691444 3.48419134 0.85285758 6.10222787 0.1875 9.6875 C-0.06966797 11.14736328 -0.06966797 11.14736328 -0.33203125 12.63671875 C-0.55246094 13.41660156 -0.77289063 14.19648438 -1 15 C-1.99 15.495 -1.99 15.495 -3 16 C-3.99 15.67 -4.98 15.34 -6 15 C-5.3588237 13.71764741 -4.70613892 12.44094721 -4.0390625 11.171875 C-2.95264164 8.90101035 -2.14955119 6.6440673 -1.375 4.25 C-0.98441406 3.05117188 -0.98441406 3.05117188 -0.5859375 1.828125 C-0.39257812 1.22484375 -0.19921875 0.6215625 0 0 Z " fill="#543E40" transform="translate(212,364)"/>
<path d="M0 0 C0.33 0 0.66 0 1 0 C1 3.63 1 7.26 1 11 C0.01 11.33 -0.98 11.66 -2 12 C-3.20882096 14.00016466 -3.20882096 14.00016466 -4 16 C-5 14 -5 14 -4.00390625 10.7421875 C-3.53110016 9.4502948 -3.05028031 8.16131362 -2.5625 6.875 C-2.31951172 6.21628906 -2.07652344 5.55757813 -1.82617188 4.87890625 C-1.22421679 3.25008662 -0.61297588 1.62470425 0 0 Z " fill="#544343" transform="translate(311,313)"/>
<path d="M0 0 C4.17906895 3.55994763 6.68559431 8.08663054 9 13 C9 13.66 9 14.32 9 15 C6.5625 14.3125 6.5625 14.3125 4 13 C3.3125 10.4375 3.3125 10.4375 3 8 C2.34 7.67 1.68 7.34 1 7 C0.59270772 4.67843403 0.25561323 2.3431213 0 0 Z " fill="#635050" transform="translate(325,179)"/>
<path d="M0 0 C3.875 0.875 3.875 0.875 5 2 C5.01667674 3.63713147 4.96299482 5.27510069 4.87890625 6.91015625 C4.83056641 7.89951172 4.78222656 8.88886719 4.73242188 9.90820312 C4.67634766 10.94912109 4.62027344 11.99003906 4.5625 13.0625 C4.51029297 14.10728516 4.45808594 15.15207031 4.40429688 16.22851562 C4.27416704 18.81928236 4.13918842 21.40970666 4 24 C3.67 24 3.34 24 3 24 C2.67 17.07 2.34 10.14 2 3 C1.34 2.67 0.68 2.34 0 2 C0 1.34 0 0.68 0 0 Z " fill="#331518" transform="translate(420,350)"/>
<path d="M0 0 C3.77324749 1.88662375 4.58234319 7.26683706 6 11 C9.63 11.33 13.26 11.66 17 12 C17 12.33 17 12.66 17 13 C11.06 13.495 11.06 13.495 5 14 C4.67 12.35 4.34 10.7 4 9 C3.34 9 2.68 9 2 9 C1.34 6.03 0.68 3.06 0 0 Z " fill="#110406" transform="translate(265,191)"/>
<path d="M0 0 C0.66 0 1.32 0 2 0 C2 0.66 2 1.32 2 2 C2.66 2 3.32 2 4 2 C4.33 3.32 4.66 4.64 5 6 C5.66 6 6.32 6 7 6 C7.12375 6.969375 7.2475 7.93875 7.375 8.9375 C7.684375 10.4534375 7.684375 10.4534375 8 12 C8.66 12.33 9.32 12.66 10 13 C9.67 13.99 9.34 14.98 9 16 C7.68370433 13.89812468 6.37187003 11.79368324 5.0625 9.6875 C4.68931641 9.09259766 4.31613281 8.49769531 3.93164062 7.88476562 C2.31175806 5.27252256 0.97592942 2.92778827 0 0 Z " fill="#655455" transform="translate(279,133)"/>
<path d="M0 0 C1.46911544 3.81970016 0.52561108 6.30641529 -1 10 C-1.66 10.66 -2.32 11.32 -3 12 C-3.99 12 -4.98 12 -6 12 C-4.68139111 7.38486888 -2.78644563 3.90102388 0 0 Z " fill="#6A5859" transform="translate(145,215)"/>
<path d="M0 0 C1.125 1.5625 1.125 1.5625 2 4 C1.1875 7.4375 1.1875 7.4375 0 11 C-0.165 11.94875 -0.33 12.8975 -0.5 13.875 C-0.665 14.57625 -0.83 15.2775 -1 16 C-1.66 16.33 -2.32 16.66 -3 17 C-2.22095672 5.47835991 -2.22095672 5.47835991 0 0 Z " fill="#312121" transform="translate(109,406)"/>
<path d="M0 0 C0.66 0 1.32 0 2 0 C0.33333333 5 -1.33333333 10 -3 15 C-5 12 -5 12 -5 9 C-4.34 9 -3.68 9 -3 9 C-3 7.35 -3 5.7 -3 4 C-2.34 4 -1.68 4 -1 4 C-0.67 2.68 -0.34 1.36 0 0 Z " fill="#5A4141" transform="translate(102,395)"/>
<path d="M0 0 C0.66 0 1.32 0 2 0 C2 1.32 2 2.64 2 4 C2.66 4 3.32 4 4 4 C4 6.64 4 9.28 4 12 C0.04 12 -3.92 12 -8 12 C-8 11.67 -8 11.34 -8 11 C-4.7 10.67 -1.4 10.34 2 10 C1.34 6.7 0.68 3.4 0 0 Z " fill="#534242" transform="translate(321,392)"/>
<path d="M0 0 C1.90747183 2.86120775 3.00353706 5.35254993 4.1875 8.5625 C4.55230469 9.53316406 4.91710937 10.50382812 5.29296875 11.50390625 C6 14 6 14 5 16 C2.25584905 13.73881962 1.10589714 12.52405508 0.390625 8.984375 C0.34421875 7.91703125 0.2978125 6.8496875 0.25 5.75 C0.19328125 4.67234375 0.1365625 3.5946875 0.078125 2.484375 C0.05234375 1.66453125 0.0265625 0.8446875 0 0 Z " fill="#4F403E" transform="translate(341,381)"/>
<path d="M0 0 C0.78503906 0.00644531 1.57007813 0.01289063 2.37890625 0.01953125 C4.4375 0.1875 4.4375 0.1875 6.4375 1.1875 C6.4375 2.8375 6.4375 4.4875 6.4375 6.1875 C5.7775 6.1875 5.1175 6.1875 4.4375 6.1875 C4.1075 5.1975 3.7775 4.2075 3.4375 3.1875 C-0.1925 2.8575 -3.8225 2.5275 -7.5625 2.1875 C-4.404724 0.082316 -3.60852866 -0.06539344 0 0 Z " fill="#5B4844" transform="translate(184.5625,395.8125)"/>
<path d="M0 0 C2.97 0 5.94 0 9 0 C9 0.66 9 1.32 9 2 C7.35 2 5.7 2 4 2 C4.33 3.98 4.66 5.96 5 8 C2.5 6.25 2.5 6.25 0 4 C0 2.68 0 1.36 0 0 Z " fill="#544244" transform="translate(343,340)"/>
<path d="M0 0 C0 3.61759584 -0.98217502 4.95698951 -2.875 8 C-3.40867188 8.86625 -3.94234375 9.7325 -4.4921875 10.625 C-5.63888508 12.43119722 -6.81324441 14.21986661 -8 16 C-8 14.35 -8 12.7 -8 11 C-7.34 11 -6.68 11 -6 11 C-5.855625 10.4225 -5.71125 9.845 -5.5625 9.25 C-5.04166667 7.16666667 -4.52083333 5.08333333 -4 3 C-3.34 3 -2.68 3 -2 3 C-2 2.34 -2 1.68 -2 1 C-1.34 0.67 -0.68 0.34 0 0 Z " fill="#615252" transform="translate(159,232)"/>
<path d="M0 0 C0.84062397 3.09773244 1.08935201 5.78332751 1 9 C0.01 9.33 -0.98 9.66 -2 10 C-2 10.99 -2 11.98 -2 13 C-0.68 13.33 0.64 13.66 2 14 C0.35 14 -1.3 14 -3 14 C-4.37095624 10.30962722 -3.60010967 8.29116165 -2.0625 4.75 C-1.68222656 3.85796875 -1.30195312 2.9659375 -0.91015625 2.046875 C-0.60980469 1.37140625 -0.30945313 0.6959375 0 0 Z " fill="#523E3E" transform="translate(106,415)"/>
<path d="M0 0 C0.75 1.6875 0.75 1.6875 1 4 C-0.8125 6.75 -0.8125 6.75 -3 9 C-3.66 9 -4.32 9 -5 9 C-5.33 9.99 -5.66 10.98 -6 12 C-6.99 12.33 -7.98 12.66 -9 13 C-8.25 10.5625 -8.25 10.5625 -7 8 C-6.34 7.855625 -5.68 7.71125 -5 7.5625 C-4.01 7.2840625 -4.01 7.2840625 -3 7 C-1.76242123 4.03739474 -1.76242123 4.03739474 -1 1 C-0.67 0.67 -0.34 0.34 0 0 Z " fill="#3A2A2C" transform="translate(157,198)"/>
<path d="M0 0 C1.5 1.25 1.5 1.25 3 3 C3 4.32 3 5.64 3 7 C-3.27 7 -9.54 7 -16 7 C-16 6.67 -16 6.34 -16 6 C-10.39 6 -4.78 6 1 6 C0.67 4.02 0.34 2.04 0 0 Z " fill="#5D4A4B" transform="translate(482,422)"/>
<path d="M0 0 C2 1.625 2 1.625 4 4 C4.25 7.25 4.25 7.25 4 10 C0.37 10 -3.26 10 -7 10 C-7 9.67 -7 9.34 -7 9 C-4.03 9 -1.06 9 2 9 C1.67 8.2575 1.34 7.515 1 6.75 C0 4 0 4 0 0 Z " fill="#392424" transform="translate(392,295)"/>
<path d="M0 0 C-0.33 0.66 -0.66 1.32 -1 2 C-7.6 1.67 -14.2 1.34 -21 1 C-21 0.67 -21 0.34 -21 0 C-18.25034772 -0.19511725 -15.50057868 -0.38136433 -12.75 -0.5625 C-11.97269531 -0.61857422 -11.19539063 -0.67464844 -10.39453125 -0.73242188 C-9.64042969 -0.78076172 -8.88632812 -0.82910156 -8.109375 -0.87890625 C-7.41811523 -0.9260376 -6.72685547 -0.97316895 -6.01464844 -1.02172852 C-3.86382928 -0.99853136 -2.05915129 -0.5995764 0 0 Z " fill="#39181B" transform="translate(474,372)"/>
<path d="M0 0 C5.80205656 5.64524422 5.80205656 5.64524422 8 9 C8 9.66 8 10.32 8 11 C6.68 10.67 5.36 10.34 4 10 C3.896875 9.360625 3.79375 8.72125 3.6875 8.0625 C3.460625 7.381875 3.23375 6.70125 3 6 C2.01 5.67 1.02 5.34 0 5 C0 3.35 0 1.7 0 0 Z " fill="#574848" transform="translate(410,352)"/>
<path d="M0 0 C0.66 0 1.32 0 2 0 C0.53967505 5.31027254 -1.98320986 9.46330032 -5 14 C-6.125 10.25 -6.125 10.25 -5 8 C-4.34 8 -3.68 8 -3 8 C-2.67 6.35 -2.34 4.7 -2 3 C-1.34 3 -0.68 3 0 3 C0 2.01 0 1.02 0 0 Z " fill="#574645" transform="translate(78,351)"/>
<path d="M0 0 C0.66 0.33 1.32 0.66 2 1 C-0.31 5.62 -2.62 10.24 -5 15 C-6 11 -6 11 -5 8 C-4.34 8 -3.68 8 -3 8 C-2.67 6.02 -2.34 4.04 -2 2 C-1.34 2 -0.68 2 0 2 C0 1.34 0 0.68 0 0 Z " fill="#5B4B4C" transform="translate(283,345)"/>
<path d="M0 0 C2.23639141 3.35458711 3.17118585 6.06313281 4 10 C3.125 12.4375 3.125 12.4375 2 14 C0.09391902 10.78817851 -0.22266247 8.46117397 -0.125 4.75 C-0.09792969 3.41195313 -0.09792969 3.41195313 -0.0703125 2.046875 C-0.04710937 1.37140625 -0.02390625 0.6959375 0 0 Z " fill="#443435" transform="translate(326,340)"/>
<path d="M0 0 C1.32 0 2.64 0 4 0 C4 0.99 4 1.98 4 3 C4.66 3 5.32 3 6 3 C5.67 4.32 5.34 5.64 5 7 C3.68 5.68 2.36 4.36 1 3 C0.34 4.65 -0.32 6.3 -1 8 C-1.66 6.68 -2.32 5.36 -3 4 C-2.01 4 -1.02 4 0 4 C0 2.68 0 1.36 0 0 Z " fill="#5A4548" transform="translate(246,78)"/>
<path d="M0 0 C1.24506944 3.59686728 0.91681587 6.33273652 0 10 C-1.4375 12.375 -1.4375 12.375 -3 14 C-3.66 14 -4.32 14 -5 14 C-3.70022952 9.1008651 -2.07626313 4.62440425 0 0 Z " fill="#564242" transform="translate(85,377)"/>
<path d="M0 0 C3.22269618 3.79817765 5.74520378 7.57391854 8 12 C7.67 12.66 7.34 13.32 7 14 C6.34 13.34 5.68 12.68 5 12 C5 11.01 5 10.02 5 9 C4.01 9 3.02 9 2 9 C0.50178941 5.62902617 0 3.79557881 0 0 Z " fill="#685858" transform="translate(364,246)"/>
<path d="M0 0 C1.60031344 3.20062687 0.03173691 5.72271806 -1 9 C-1.66 9 -2.32 9 -3 9 C-3 9.66 -3 10.32 -3 11 C-3.66 11 -4.32 11 -5 11 C-5.33 11.99 -5.66 12.98 -6 14 C-6.33 13.34 -6.66 12.68 -7 12 C-5.56640625 9.1796875 -5.56640625 9.1796875 -3.5625 5.875 C-2.57443359 4.23144531 -2.57443359 4.23144531 -1.56640625 2.5546875 C-1.04949219 1.71164063 -0.53257812 0.86859375 0 0 Z " fill="#6A5A5A" transform="translate(183,149)"/>
<path d="M0 0 C0.99 0.33 1.98 0.66 3 1 C1.90931332 4.77545388 1.0916909 7.47043472 -2 10 C-3.06351675 6.61608307 -3.21442982 5.4195366 -1.5625 2.1875 C-1.046875 1.465625 -0.53125 0.74375 0 0 Z " fill="#483A3A" transform="translate(207,144)"/>
<path d="M0 0 C1.65 0.33 3.3 0.66 5 1 C5.66 2.98 6.32 4.96 7 7 C4.53199953 5.84826645 2.95216435 4.95216435 1 3 C0.01 3.66 -0.98 4.32 -2 5 C-1.34 3.35 -0.68 1.7 0 0 Z " fill="#6A5B5C" transform="translate(244,43)"/>
<path d="M0 0 C0.33 0 0.66 0 1 0 C1.49230769 7.26153846 1.49230769 7.26153846 -1 11 C-1.66 11.66 -2.32 12.32 -3 13 C-3 9.41936487 -2.65592475 7.52512014 -1.5 4.25 C-1.2215625 3.45078125 -0.943125 2.6515625 -0.65625 1.828125 C-0.4396875 1.22484375 -0.223125 0.6215625 0 0 Z " fill="#493C3C" transform="translate(90,364)"/>
<path d="M0 0 C0.97918775 3.07556958 1.1498998 3.68592423 -0.3125 6.75 C-0.869375 7.4925 -1.42625 8.235 -2 9 C-2.66 9 -3.32 9 -4 9 C-4.33 10.65 -4.66 12.3 -5 14 C-5.66 14 -6.32 14 -7 14 C-5.53967505 8.68972746 -3.01679014 4.53669968 0 0 Z " fill="#7C6764" transform="translate(130,241)"/>
<path d="M0 0 C0.33 0.66 0.66 1.32 1 2 C0.0390625 3.9453125 0.0390625 3.9453125 -1.375 6.125 C-1.83648437 6.84945312 -2.29796875 7.57390625 -2.7734375 8.3203125 C-3.17820313 8.87460938 -3.58296875 9.42890625 -4 10 C-4.33 10 -4.66 10 -5 10 C-5.08886184 6.80097361 -4.91058531 4.07322544 -4 1 C-2.68 0.67 -1.36 0.34 0 0 Z " fill="#584848" transform="translate(182,192)"/>
<path d="M0 0 C0.33 0 0.66 0 1 0 C1 2.31 1 4.62 1 7 C-0.32 7.33 -1.64 7.66 -3 8 C-3 8.66 -3 9.32 -3 10 C-3.66 10 -4.32 10 -5 10 C-3.66654496 6.40992874 -2.1056769 3.20429093 0 0 Z " fill="#5B4D4E" transform="translate(222,82)"/>
<path d="M0 0 C0.99 0 1.98 0 3 0 C2.49202991 4.3177458 1.80317221 8.03302114 0 12 C-0.66 11.34 -1.32 10.68 -2 10 C-2 8.68 -2 7.36 -2 6 C-1.01 6 -0.02 6 1 6 C0.67 4.02 0.34 2.04 0 0 Z " fill="#493C3C" transform="translate(473,372)"/>
<path d="M0 0 C0.99 0 1.98 0 3 0 C1.43358249 4.30764815 -0.68336156 8.06171464 -3 12 C-4.34882814 9.30234372 -3.80338265 7.84835666 -3 5 C-2.34 4.67 -1.68 4.34 -1 4 C-0.34786708 1.97536745 -0.34786708 1.97536745 0 0 Z " fill="#524645" transform="translate(143,256)"/>
<path d="M0 0 C0.99 0.33 1.98 0.66 3 1 C0.69 4.96 -1.62 8.92 -4 13 C-5.24546405 10.50907189 -4.7767578 9.58919267 -4 7 C-3.34 7 -2.68 7 -2 7 C-2 5.68 -2 4.36 -2 3 C-1.34 3 -0.68 3 0 3 C0 2.01 0 1.02 0 0 Z " fill="#746969" transform="translate(165,219)"/>
<path d="M0 0 C2.63744638 1.31872319 3.20619668 2.8111975 4.625 5.375 C5.07101562 6.16648438 5.51703125 6.95796875 5.9765625 7.7734375 C7 10 7 10 7 13 C6.01 12.34 5.02 11.68 4 11 C4 10.01 4 9.02 4 8 C3.34 8 2.68 8 2 8 C0.23537317 4.91190305 0 3.76687864 0 0 Z " fill="#716262" transform="translate(334,194)"/>
<path d="M0 0 C3.29078593 2.79716804 5.06305458 6.19528578 7 10 C6.67 10.66 6.34 11.32 6 12 C5.67 11.01 5.34 10.02 5 9 C4.34 9 3.68 9 3 9 C3 8.34 3 7.68 3 7 C2.34 7 1.68 7 1 7 C0.67 4.69 0.34 2.38 0 0 Z " fill="#75595B" transform="translate(308,149)"/>
<path d="M0 0 C0.9435441 2.53899138 1.16906025 3.60909275 0.07421875 6.140625 C-0.61220703 7.18476562 -0.61220703 7.18476562 -1.3125 8.25 C-1.76238281 8.95640625 -2.21226562 9.6628125 -2.67578125 10.390625 C-3.11277344 10.92171875 -3.54976562 11.4528125 -4 12 C-4.66 12 -5.32 12 -6 12 C-4.43358249 7.69235185 -2.31663844 3.93828536 0 0 Z " fill="#706262" transform="translate(237,56)"/>
<path d="M0 0 C2.475 0.99 2.475 0.99 5 2 C4.67 4.31 4.34 6.62 4 9 C3.01 7.68 2.02 6.36 1 5 C0.34 5.99 -0.32 6.98 -1 8 C-0.67 5.36 -0.34 2.72 0 0 Z " fill="#4F3C3E" transform="translate(111,371)"/>
<path d="M0 0 C1.65 0 3.3 0 5 0 C5.56531239 4.8051553 3.88324916 7.24303897 1 11 C0.67 11 0.34 11 0 11 C0 9.35 0 7.7 0 6 C0.66 6 1.32 6 2 6 C2 5.01 2 4.02 2 3 C2.66 3 3.32 3 4 3 C4 2.34 4 1.68 4 1 C2.68 0.67 1.36 0.34 0 0 Z " fill="#504544" transform="translate(80,340)"/>
<path d="M0 0 C0.99 0.33 1.98 0.66 3 1 C0.525 5.455 0.525 5.455 -2 10 C-4 7 -4 7 -4 5 C-3.34 5 -2.68 5 -2 5 C-2 4.34 -2 3.68 -2 3 C-1.34 3 -0.68 3 0 3 C0 2.01 0 1.02 0 0 Z " fill="#564345" transform="translate(134,272)"/>
<path d="M0 0 C2.7972908 2.06756277 3.02692273 3.14440371 3.6875 6.6875 C3.790625 7.780625 3.89375 8.87375 4 10 C2.02 10 0.04 10 -2 10 C-1.484375 9.649375 -0.96875 9.29875 -0.4375 8.9375 C1.40146383 6.90531273 1.40146383 6.90531273 0.6875 3.3125 C0.460625 2.219375 0.23375 1.12625 0 0 Z " fill="#322223" transform="translate(479,418)"/>
<path d="M0 0 C0.66 0 1.32 0 2 0 C0 8.57142857 0 8.57142857 -2 12 C-3.12377697 8.69564916 -2.89554742 6.9493138 -1.5625 3.75 C-1.27503906 3.04359375 -0.98757813 2.3371875 -0.69140625 1.609375 C-0.46324219 1.07828125 -0.23507812 0.5471875 0 0 Z " fill="#574343" transform="translate(296,415)"/>
<path d="M0 0 C0.99 0.33 1.98 0.66 3 1 C4.47666292 4.49029418 4.07164685 8.27436386 4 12 C1.57869669 9.57869669 1.47159496 8.19888623 0.875 4.875 C0.70742187 3.96492188 0.53984375 3.05484375 0.3671875 2.1171875 C0.24601562 1.41851562 0.12484375 0.71984375 0 0 Z " fill="#463432" transform="translate(118,388)"/>
<path d="M0 0 C0.66 0.33 1.32 0.66 2 1 C0.77472971 5.05281712 -0.69880494 8.44360764 -3 12 C-3.66 10.68 -4.32 9.36 -5 8 C-4.34 7.67 -3.68 7.34 -3 7 C-2.67 6.01 -2.34 5.02 -2 4 C-1.34 4 -0.68 4 0 4 C0 2.68 0 1.36 0 0 Z " fill="#624C4B" transform="translate(209,344)"/>
<path d="M0 0 C0.33 0.66 0.66 1.32 1 2 C-0.21484375 4.3828125 -0.21484375 4.3828125 -1.9375 7.125 C-2.50339844 8.03507813 -3.06929687 8.94515625 -3.65234375 9.8828125 C-4.09707031 10.58148438 -4.54179687 11.28015625 -5 12 C-6.33332095 9.3333581 -5.67102033 7.83319697 -5 5 C-4.34 5 -3.68 5 -3 5 C-3 4.34 -3 3.68 -3 3 C-2.34 3 -1.68 3 -1 3 C-0.67 2.01 -0.34 1.02 0 0 Z " fill="#695758" transform="translate(216,133)"/>
<path d="M0 0 C1.98 0.495 1.98 0.495 4 1 C2.8141763 4.37503669 1.72426311 6.64722731 -1 9 C-1.125 2.25 -1.125 2.25 0 0 Z " fill="#49393B" transform="translate(201,356)"/>
<path d="M0 0 C2 1 2 1 2.8515625 3.28515625 C3.10679687 4.20167969 3.36203125 5.11820312 3.625 6.0625 C3.88539063 6.98160156 4.14578125 7.90070313 4.4140625 8.84765625 C4.60742188 9.55792969 4.80078125 10.26820313 5 11 C4.34 11 3.68 11 3 11 C2.67 10.01 2.34 9.02 2 8 C1.34 7.67 0.68 7.34 0 7 C0 4.69 0 2.38 0 0 Z " fill="#624C4C" transform="translate(329,350)"/>
<path d="M0 0 C2.97 0.495 2.97 0.495 6 1 C6.33 1.99 6.66 2.98 7 4 C7.99 4.33 8.98 4.66 10 5 C5.27635085 5 3.7011388 3.7758541 0 1 C0 0.67 0 0.34 0 0 Z " fill="#554343" transform="translate(23,419)"/>
<path d="M0 0 C2.125 0.375 2.125 0.375 4 1 C2.35830472 3.02054804 0.69088222 5.02043058 -1 7 C-1.33 7 -1.66 7 -2 7 C-2.125 4.625 -2.125 4.625 -2 2 C-1.34 1.34 -0.68 0.68 0 0 Z " fill="#453239" transform="translate(415,406)"/>
<path d="M0 0 C2.51699845 2.51699845 3.10964078 4.57554146 4 8 C3.625 10.375 3.625 10.375 3 12 C2.67 11.01 2.34 10.02 2 9 C1.34 8.67 0.68 8.34 0 8 C0 5.36 0 2.72 0 0 Z " fill="#604849" transform="translate(130,356)"/>
<path d="M0 0 C0.66 0.33 1.32 0.66 2 1 C-1.96 4.465 -1.96 4.465 -6 8 C-6.66 7.67 -7.32 7.34 -8 7 C-5.80075931 3.64326421 -3.61730402 1.76227632 0 0 Z " fill="#433434" transform="translate(23,350)"/>
<path d="M0 0 C0.33 0.66 0.66 1.32 1 2 C0.07137808 4.03412421 -0.93753473 6.03247172 -2 8 C-2.391875 8.78375 -2.78375 9.5675 -3.1875 10.375 C-3.455625 10.91125 -3.72375 11.4475 -4 12 C-4.66 12 -5.32 12 -6 12 C-4.43358249 7.69235185 -2.31663844 3.93828536 0 0 Z " fill="#6D6B6C" transform="translate(117,264)"/>
<path d="M0 0 C3.48331435 3.01887244 4.79157144 5.56909529 6 10 C4 10 4 10 2.4375 8.9375 C0.35943153 6.13662511 0.32189473 3.41208416 0 0 Z " fill="#5A4748" transform="translate(319,169)"/>
<path d="M0 0 C0.625 1.8125 0.625 1.8125 1 4 C0.01 5.485 0.01 5.485 -1 7 C-1.66 7 -2.32 7 -3 7 C-3.12375 7.639375 -3.2475 8.27875 -3.375 8.9375 C-3.58125 9.618125 -3.7875 10.29875 -4 11 C-4.99 11.495 -4.99 11.495 -6 12 C-4.68139111 7.38486888 -2.78644563 3.90102388 0 0 Z " fill="#7F6C6C" transform="translate(171,170)"/>
<path d="M0 0 C1.37432457 3.81756824 0.67975039 7.07255329 0 11 C-0.99 11.33 -1.98 11.66 -3 12 C-2.88541307 10.56163249 -2.75790884 9.12429034 -2.625 7.6875 C-2.55539063 6.88699219 -2.48578125 6.08648437 -2.4140625 5.26171875 C-2 3 -2 3 0 0 Z " fill="#4C3636" transform="translate(216,92)"/>
<path d="M0 0 C1.1875 1.6875 1.1875 1.6875 2 4 C0.75 6.75 0.75 6.75 -1 9 C-1.66 9 -2.32 9 -3 9 C-2.44271087 5.65626525 -1.64826111 2.96687001 0 0 Z " fill="#3E3133" transform="translate(233,100)"/>
<path d="M0 0 C0.33 0 0.66 0 1 0 C1 2.97 1 5.94 1 9 C2.65 9.33 4.3 9.66 6 10 C6 10.33 6 10.66 6 11 C4.02 11 2.04 11 0 11 C-1.35015859 6.94952424 -0.62084998 4.2079832 0 0 Z " fill="#130406" transform="translate(371,394)"/>
<path d="M0 0 C3.93673644 1.31224548 6.22719294 2.91910327 9 6 C7.35 6 5.7 6 4 6 C3.67 4.68 3.34 3.36 3 2 C2.01 2.33 1.02 2.66 0 3 C0 2.01 0 1.02 0 0 Z " fill="#624F50" transform="translate(398,344)"/>
<path d="M0 0 C0.33 0 0.66 0 1 0 C1 2.97 1 5.94 1 9 C-0.32 9.33 -1.64 9.66 -3 10 C-2.01 6.7 -1.02 3.4 0 0 Z " fill="#5E4344" transform="translate(305,329)"/>
<path d="M0 0 C1.32 0.33 2.64 0.66 4 1 C5.25 4.0625 5.25 4.0625 6 7 C5.01 7.495 5.01 7.495 4 8 C2.68 5.36 1.36 2.72 0 0 Z " fill="#523D3D" transform="translate(252,86)"/>
<path d="M0 0 C1.66611905 -0.042721 3.33382885 -0.04063832 5 0 C6 1 6 1 6.0625 3.5625 C6.041875 4.366875 6.02125 5.17125 6 6 C3.97945196 4.35830472 1.97956942 2.69088222 0 1 C0 0.67 0 0.34 0 0 Z " fill="#634848" transform="translate(218,413)"/>
<path d="M0 0 C0.99 0.33 1.98 0.66 3 1 C3 5.62 3 10.24 3 15 C2.67 15 2.34 15 2 15 C2 11.04 2 7.08 2 3 C1.34 3 0.68 3 0 3 C0 2.01 0 1.02 0 0 Z " fill="#321618" transform="translate(421,395)"/>
<path d="M0 0 C0 2.62113708 -0.31292445 4.50935112 -1 7 C-1.66 7 -2.32 7 -3 7 C-3 7.66 -3 8.32 -3 9 C-3.99 9.33 -4.98 9.66 -6 10 C-4.6302836 6.00499382 -2.74277578 3.19990508 0 0 Z " fill="#7D6767" transform="translate(219,354)"/>
<path d="M0 0 C1.13643966 3.40931897 0.86747764 4.00335456 -0.4375 7.1875 C-0.86869141 8.26064453 -0.86869141 8.26064453 -1.30859375 9.35546875 C-1.53675781 9.89816406 -1.76492188 10.44085938 -2 11 C-2.33 11 -2.66 11 -3 11 C-2.88590407 9.54077307 -2.75834456 8.08259402 -2.625 6.625 C-2.55539062 5.81289063 -2.48578125 5.00078125 -2.4140625 4.1640625 C-2 2 -2 2 0 0 Z " fill="#6D5658" transform="translate(481,354)"/>
<path d="M0 0 C0.33 0 0.66 0 1 0 C1.6875 2.8125 1.6875 2.8125 2 6 C0.6875 7.875 0.6875 7.875 -1 9 C-1.66 9 -2.32 9 -3 9 C-2.01 6.03 -1.02 3.06 0 0 Z " fill="#583B3D" transform="translate(98,343)"/>
<path d="M0 0 C1.32 0 2.64 0 4 0 C4.33 1.98 4.66 3.96 5 6 C4.34 6 3.68 6 3 6 C3 5.34 3 4.68 3 4 C2.01 3.67 1.02 3.34 0 3 C0 2.01 0 1.02 0 0 Z " fill="#372626" transform="translate(413,342)"/>
<path d="M0 0 C1 3 1 3 -0.25 5.5625 C-2 8 -2 8 -5 10 C-3.84414715 6.08788267 -2.64465038 3.1254959 0 0 Z " fill="#746464" transform="translate(136,231)"/>
<path d="M0 0 C0.99 0 1.98 0 3 0 C3.12375 0.78375 3.2475 1.5675 3.375 2.375 C3.79117993 5.14057822 3.79117993 5.14057822 6 7 C5.67 7.99 5.34 8.98 5 10 C4.16121545 8.71186658 3.32913217 7.41936744 2.5 6.125 C2.0359375 5.40570313 1.571875 4.68640625 1.09375 3.9453125 C0 2 0 2 0 0 Z " fill="#654F57" transform="translate(309,184)"/>
<path d="M0 0 C2 3.75 2 3.75 2 6 C0.02 6.66 -1.96 7.32 -4 8 C-4.33 7.34 -4.66 6.68 -5 6 C-4.01 6 -3.02 6 -2 6 C-1.34 4.02 -0.68 2.04 0 0 Z " fill="#342425" transform="translate(77,398)"/>
<path d="M0 0 C2 3 2 3 2 7 C2.99 7.33 3.98 7.66 5 8 C3.02 8 1.04 8 -1 8 C-0.67 5.36 -0.34 2.72 0 0 Z " fill="#372425" transform="translate(145,397)"/>
<path d="M0 0 C0.66 0 1.32 0 2 0 C1.37344168 2.92393881 0.5838192 5.44829129 -1 8 C-1.99 8.33 -2.98 8.66 -4 9 C-2.80100302 5.9168649 -1.52299523 2.93720508 0 0 Z " fill="#6E5555" transform="translate(13,359)"/>
<path d="M0 0 C3.0916909 2.52956528 3.90931332 5.22454612 5 9 C2 8 2 8 0.8125 6.1875 C0 4 0 4 0 0 Z " fill="#6E5554" transform="translate(387,286)"/>
<path d="M0 0 C3.0916909 2.52956528 3.90931332 5.22454612 5 9 C2 8 2 8 0.8125 6.1875 C0 4 0 4 0 0 Z " fill="#715759" transform="translate(372,260)"/>
<path d="M0 0 C0.99 0.33 1.98 0.66 3 1 C4.1875 4.5625 4.1875 4.5625 5 8 C4.34 8 3.68 8 3 8 C0 2.25 0 2.25 0 0 Z " fill="#4E3A3B" transform="translate(10,402)"/>
<path d="M0 0 C3.875 0.875 3.875 0.875 5 2 C5.04063832 3.66617115 5.042721 5.33388095 5 7 C3 6 3 6 2 3 C1.34 2.67 0.68 2.34 0 2 C0 1.34 0 0.68 0 0 Z " fill="#2B1F1E" transform="translate(420,350)"/>
<path d="M0 0 C3.03869411 1.51934706 3.64410306 3.98004772 5 7 C5 7.66 5 8.32 5 9 C4.01 9 3.02 9 2 9 C1.34 6.03 0.68 3.06 0 0 Z " fill="#715C5B" transform="translate(265,191)"/>
<path d="M0 0 C4 4.625 4 4.625 4 8 C3.01 8 2.02 8 1 8 C0.67 5.36 0.34 2.72 0 0 Z " fill="#5F4645" transform="translate(315,161)"/>
<path d="" fill="#FFFFFF" transform="translate(0,0)"/>
<path d="" fill="#FFFFFF" transform="translate(0,0)"/>
<path d="" fill="#FFFFFF" transform="translate(0,0)"/>
<path d="" fill="#FFFFFF" transform="translate(0,0)"/>
<path d="" fill="#FFFFFF" transform="translate(0,0)"/>
<path d="" fill="#FFFFFF" transform="translate(0,0)"/>
<path d="" fill="#FFFFFF" transform="translate(0,0)"/>
<path d="" fill="#FFFFFF" transform="translate(0,0)"/>
<path d="" fill="#FFFFFF" transform="translate(0,0)"/>
<path d="" fill="#FFFFFF" transform="translate(0,0)"/>
<path d="" fill="#FFFFFF" transform="translate(0,0)"/>
<path d="" fill="#FFFFFF" transform="translate(0,0)"/>
<path d="" fill="#FFFFFF" transform="translate(0,0)"/>
<path d="" fill="#FFFFFF" transform="translate(0,0)"/>
<path d="" fill="#FFFFFF" transform="translate(0,0)"/>
<path d="" fill="#FFFFFF" transform="translate(0,0)"/>
<path d="" fill="#FFFFFF" transform="translate(0,0)"/>
<path d="" fill="#FFFFFF" transform="translate(0,0)"/>
<path d="" fill="#FFFFFF" transform="translate(0,0)"/>
<path d="" fill="#FFFFFF" transform="translate(0,0)"/>
<path d="" fill="#FFFFFF" transform="translate(0,0)"/>
<path d="" fill="#FFFFFF" transform="translate(0,0)"/>
<path d="" fill="#FFFFFF" transform="translate(0,0)"/>
<path d="" fill="#FFFFFF" transform="translate(0,0)"/>
<path d="" fill="#FFFFFF" transform="translate(0,0)"/>
<path d="" fill="#FFFFFF" transform="translate(0,0)"/>
<path d="" fill="#FFFFFF" transform="translate(0,0)"/>
<path d="" fill="#FFFFFF" transform="translate(0,0)"/>
<path d="" fill="#FFFFFF" transform="translate(0,0)"/>
<path d="" fill="#FFFFFF" transform="translate(0,0)"/>
<path d="" fill="#FFFFFF" transform="translate(0,0)"/>
<path d="" fill="#FFFFFF" transform="translate(0,0)"/>
<path d="" fill="#FFFFFF" transform="translate(0,0)"/>
<path d="" fill="#FFFFFF" transform="translate(0,0)"/>
<path d="" fill="#FFFFFF" transform="translate(0,0)"/>
<path d="" fill="#FFFFFF" transform="translate(0,0)"/>
<path d="" fill="#FFFFFF" transform="translate(0,0)"/>
<path d="" fill="#FFFFFF" transform="translate(0,0)"/>
<path d="" fill="#FFFFFF" transform="translate(0,0)"/>
<path d="" fill="#FFFFFF" transform="translate(0,0)"/>
<path d="" fill="#FFFFFF" transform="translate(0,0)"/>
<path d="" fill="#FFFFFF" transform="translate(0,0)"/>
<path d="" fill="#FFFFFF" transform="translate(0,0)"/>
<path d="" fill="#FFFFFF" transform="translate(0,0)"/>
<path d="" fill="#FFFFFF" transform="translate(0,0)"/>
<path d="" fill="#FFFFFF" transform="translate(0,0)"/>
<path d="" fill="#FFFFFF" transform="translate(0,0)"/>
<path d="" fill="#FFFFFF" transform="translate(0,0)"/>
<path d="" fill="#FFFFFF" transform="translate(0,0)"/>
<path d="" fill="#FFFFFF" transform="translate(0,0)"/>
<path d="" fill="#FFFFFF" transform="translate(0,0)"/>
<path d="" fill="#FFFFFF" transform="translate(0,0)"/>
<path d="" fill="#FFFFFF" transform="translate(0,0)"/>
<path d="" fill="#FFFFFF" transform="translate(0,0)"/>
<path d="" fill="#FFFFFF" transform="translate(0,0)"/>
<path d="" fill="#FFFFFF" transform="translate(0,0)"/>
<path d="" fill="#FFFFFF" transform="translate(0,0)"/>
<path d="" fill="#FFFFFF" transform="translate(0,0)"/>
<path d="" fill="#FFFFFF" transform="translate(0,0)"/>
<path d="" fill="#FFFFFF" transform="translate(0,0)"/>
<path d="" fill="#FFFFFF" transform="translate(0,0)"/>
<path d="" fill="#FFFFFF" transform="translate(0,0)"/>
<path d="" fill="#FFFFFF" transform="translate(0,0)"/>
<path d="" fill="#FFFFFF" transform="translate(0,0)"/>
<path d="" fill="#FFFFFF" transform="translate(0,0)"/>
</svg>
